# Alias OBJ Model File
# Exported from SketchUp, (c) 2000-2012 Trimble Navigation Limited
# File units = millimeters

mtllib Sacada.mtl

g Mesh1 Sophie1 Model

usemtl Sophie_Skin
v 19691.2 760.714 6190.71
vt -6.13316 30.719
vn 0.696658 -1.38707e-15 -0.717403
v 19692.1 760.864 6191.54
vt -6.17989 30.7249
v 19703.6 762.999 6202.73
vt -6.81211 30.8089
v 19699.6 757.608 6198.86
vt -6.59369 30.5967
v 19685.3 751.018 6184.97
vt -5.80867 30.3372
v 19684.5 749.343 6184.17
vt -5.76334 30.2713
v 19683.2 751.794 6182.92
vt -5.69265 30.3678
v 19683.4 756.293 6183.13
vt -5.70485 30.5449
v 19686.1 759.861 6185.78
vt -5.8545 30.6854
f 1/1/1 2/2/1 3/3/1 4/4/1 5/5/1 6/6/1 7/7/1 8/8/1 9/9/1 

v 19707.5 770.484 6206.55
vt -7.02833 31.1036
vn 0.696658 -6.7026e-15 -0.717403
v 19707.4 768.006 6206.38
vt -7.01884 31.006
v 19692.9 763.429 6192.32
vt -6.22401 30.8258
v 19694.6 764.515 6193.99
vt -6.31869 30.8686
v 19703.4 765.136 6202.59
vt -6.80427 30.893
f 10/10/2 11/11/2 3/3/2 2/2/2 12/12/2 13/13/2 14/14/2 

v 19690.2 739.744 6189.76
vt -6.07935 29.8933
vn 0.696658 -2.78349e-16 -0.717403
v 19689.7 741.75 6189.27
vt -6.05185 29.9723
v 19689.5 742.81 6189.02
vt -6.03733 30.0141
v 19690 748.009 6189.57
vt -6.06882 30.2187
v 19692.3 751.875 6191.8
vt -6.19481 30.371
v 19708.7 783.204 6207.68
vt -7.09233 31.6044
v 19707.7 795.602 6206.76
vt -7.03981 32.0925
v 19705.7 804.667 6204.81
vt -6.92961 32.4494
v 19701.1 806.716 6200.31
vt -6.67549 32.53
v 19695.7 776.796 6195.05
vt -6.3781 31.3521
v 19691.2 770.871 6190.71
vt -6.13316 31.1188
v 19686.5 771.76 6186.17
vt -5.87658 31.1538
v 19683.6 777.24 6183.28
vt -5.71333 31.3696
v 19682.9 788.201 6182.66
vt -5.67831 31.8011
v 19687.2 805.086 6186.79
vt -5.91158 32.4659
v 19688.7 833.525 6188.24
vt -5.99323 33.5855
v 19690 838.621 6189.49
vt -6.06395 33.7862
v 19692.4 847.893 6191.85
vt -6.19732 34.1512
v 19698.7 862.59 6197.93
vt -6.54135 34.7298
v 19700.4 875.033 6199.59
vt -6.63464 35.2197
v 19699.8 885.698 6199.03
vt -6.60352 35.6396
v 19698.8 891.308 6198.05
vt -6.54802 35.8604
v 19670.3 1048.69 6170.4
vt -4.98514 42.0568
v 19668.6 1064.97 6168.75
vt -4.89191 42.6975
v 19664.4 1095.15 6164.63
vt -4.65896 43.8857
v 19665.1 1153 6165.4
vt -4.70268 46.1633
v 19674.8 1197.66 6174.73
vt -5.23015 47.9216
v 19680.4 1255.07 6180.2
vt -5.5393 50.1818
v 19686.9 1263.81 6186.54
vt -5.89762 50.5257
v 19702.6 1303.86 6201.75
vt -6.75689 52.1027
v 19713.4 1134.2 6212.26
vt -7.35093 45.423
v 19718.2 1091.62 6216.9
vt -7.61285 43.7467
v 19725.3 1045.72 6223.85
vt -8.00573 41.9395
v 19725.3 1005.8 6223.85
vt -8.00573 40.368
v 19724 905.409 6222.5
vt -7.92986 36.4156
v 19724.7 885.773 6223.24
vt -7.97164 35.6425
v 19727.8 870.913 6226.2
vt -8.13879 35.0575
v 19724.3 852.869 6222.87
vt -7.95074 34.3471
v 19724.1 841.199 6222.61
vt -7.93599 33.8877
v 19728.2 811.596 6226.59
vt -8.16046 32.7222
v 19730.9 799.161 6229.2
vt -8.30828 32.2326
v 19730.9 794.718 6229.2
vt -8.30828 32.0577
v 19726.8 783.609 6225.28
vt -8.08671 31.6203
v 19720.2 753.838 6218.88
vt -7.72515 30.4482
v 19717.8 751.171 6216.51
vt -7.59103 30.3433
v 19705.1 744.358 6204.23
vt -6.8971 30.075
v 19692.8 738.81 6192.27
vt -6.22105 29.8566
f 15/15/3 16/16/3 17/17/3 18/18/3 19/19/3 4/4/3 3/3/3 11/11/3 10/10/3 20/20/3 21/21/3 22/22/3 23/23/3 24/24/3 25/25/3 26/26/3 27/27/3 28/28/3 29/29/3 30/30/3 31/31/3 32/32/3 33/33/3 34/34/3 35/35/3 36/36/3 37/37/3 38/38/3 39/39/3 40/40/3 41/41/3 42/42/3 43/43/3 44/44/3 45/45/3 46/46/3 47/47/3 48/48/3 49/49/3 50/50/3 51/51/3 52/52/3 53/53/3 54/54/3 55/55/3 56/56/3 57/57/3 58/58/3 59/59/3 60/60/3 61/61/3 

usemtl Sophie_Skirt
v 19684.7 743.726 6184.38
vt -5.7751 30.0501
vn 0.696658 -2.41089e-16 -0.717403
v 19686.4 741.991 6186
vt -5.86672 29.9818
v 19687.6 622.034 6187.22
vt -5.93584 25.2591
v 19702.7 526.289 6201.86
vt -6.76324 21.4896
v 19653.2 511.161 6153.83
vt -4.0488 20.894
v 19644.7 508.557 6145.58
vt -3.58279 20.7915
v 19579.7 500.571 6082.44
vt -0.0141992 20.4771
v 19571.1 501.892 6074.08
vt 0.457978 20.5291
v 19558.3 503.852 6061.68
vt 1.15865 20.6063
v 19481.9 515.597 5987.4
vt 5.35641 21.0687
v 19433.5 523.017 5940.47
vt 8.00873 21.3608
v 19444.8 598.83 5951.42
vt 7.38961 24.3456
v 19449.4 675.185 5955.93
vt 7.1351 27.3517
v 19451.4 790.308 5957.79
vt 7.02971 31.8841
v 19453.2 823.325 5959.53
vt 6.93132 33.184
v 19461.5 906.484 5967.65
vt 6.47247 36.4579
v 19523 896.915 6027.32
vt 3.10058 36.0812
v 19588.5 896.915 6090.97
vt -0.496488 36.0812
v 19651.6 902.347 6152.21
vt -3.95746 36.295
v 19679.4 911.119 6179.23
vt -5.4844 36.6404
v 19683.9 748.271 6183.65
vt -5.73435 30.2291
f 62/62/4 63/63/4 16/16/4 15/15/4 64/64/4 65/65/4 66/66/4 67/67/4 68/68/4 69/69/4 70/70/4 71/71/4 72/72/4 73/73/4 74/74/4 75/75/4 76/76/4 77/77/4 78/78/4 79/79/4 80/80/4 81/81/4 31/31/4 30/30/4 29/29/4 28/28/4 27/27/4 26/26/4 25/25/4 1/1/4 9/9/4 8/8/4 7/7/4 6/6/4 82/82/4 

usemtl Sophie_Skin
vn 0.696658 3.69978e-15 -0.717403
f 5/5/5 4/4/5 19/19/5 18/18/5 17/17/5 16/16/5 63/63/5 62/62/5 82/82/5 6/6/5 

v 19643.6 90.7312 6144.46
vt -3.51953 4.34167
vn 0.696658 -2.96291e-16 -0.717403
v 19657.7 73.1297 6158.21
vt -4.29611 3.6487
v 19652.8 73.1297 6153.42
vt -4.02555 3.6487
v 19634.7 55.9178 6135.8
vt -3.02999 2.97106
v 19631.7 45.2864 6132.92
vt -2.8671 2.55251
v 19622.2 51.5351 6123.66
vt -2.34384 2.79852
v 19594.4 60.8268 6096.74
vt -0.822321 3.16433
v 19583 65.6948 6085.64
vt -0.195253 3.35599
v 19579.2 75.1541 6081.92
vt 0.01487 3.7284
v 19579.5 84.3701 6082.26
vt -0.00425646 4.09124
v 19582.5 96.7399 6085.13
vt -0.166575 4.57824
v 19586.7 113.96 6089.19
vt -0.395783 5.25618
v 19587.3 149.934 6089.84
vt -0.432354 6.67249
v 19579.1 239.145 6081.82
vt 0.0208426 10.1847
v 19570.6 298.499 6073.55
vt 0.488221 12.5215
v 19569.6 334.204 6072.58
vt 0.54257 13.9272
v 19573 388.306 6075.88
vt 0.356449 16.0572
v 19575.6 425.531 6078.4
vt 0.214139 17.5228
v 19571 459.659 6073.97
vt 0.464108 18.8664
v 19569.6 486.644 6072.59
vt 0.542226 19.9288
v 19647.2 474.205 6147.96
vt -3.71741 19.4391
v 19643.7 437.544 6144.56
vt -3.52473 17.9957
v 19640.3 422.828 6141.27
vt -3.3393 17.4164
v 19644.5 386.923 6145.37
vt -3.57104 16.0027
v 19644.5 335.012 6145.37
vt -3.57104 13.959
v 19627.8 146.283 6129.15
vt -2.65422 6.52873
v 19630.8 118.931 6132.01
vt -2.81574 5.4519
f 83/83/6 84/84/6 85/85/6 86/86/6 87/87/6 88/88/6 89/89/6 90/90/6 91/91/6 92/92/6 93/93/6 94/94/6 95/95/6 96/96/6 97/97/6 98/98/6 99/99/6 100/100/6 101/101/6 102/102/6 69/69/6 68/68/6 67/67/6 66/66/6 103/103/6 104/104/6 105/105/6 106/106/6 107/107/6 108/108/6 109/109/6 

usemtl Sophie_Shoes
v 19630.1 36.3959 6131.35
vt -2.77823 2.20249
vn 0.696658 -3.48288e-16 -0.717403
v 19658.9 73.1297 6159.28
vt -4.35707 3.6487
v 19693.9 47.9655 6193.31
vt -6.28008 2.65798
v 19676.1 36.6839 6176.05
vt -5.30485 2.21382
v 19671 23.6845 6171.12
vt -5.0257 1.70204
v 19669.7 15.9507 6169.85
vt -4.95448 1.39756
v 19649.7 17.2333 6150.4
vt -3.85505 1.44805
v 19642.6 22.7814 6143.51
vt -3.4658 1.66648
f 110/110/7 87/87/7 86/86/7 85/85/7 84/84/7 111/111/7 112/112/7 113/113/7 114/114/7 115/115/7 116/116/7 117/117/7 

usemtl Sophie_Shirt_Gray
v 19579.5 61.4248 6082.25
vt -0.00394119 3.18788
vn 0.696658 -6.91672e-16 -0.717403
v 19620.3 43.5413 6121.81
vt -2.23925 2.4838
v 19583.5 56.1812 6086.09
vt -0.220445 2.98143
f 118/118/8 91/91/8 90/90/8 89/89/8 88/88/8 87/87/8 110/110/8 119/119/8 120/120/8 

usemtl Sophie_Shoes2
vn 0.696658 -3.06693e-16 -0.717403
v 19689 15.9507 6188.57
vt -6.012 1.39756
v 19701.3 18.4564 6200.53
vt -6.68788 1.49621
v 19709.3 25.3751 6208.25
vt -7.12418 1.7686
v 19708.1 1.83188 6207.09
vt -7.05893 0.841699
v 19697.8 -0.248986 6197.11
vt -6.49473 0.759775
v 19675.7 -12.3253 6175.68
vt -5.28369 0.284328
v 19657.3 -17.0863 6157.8
vt -4.27341 0.0968876
v 19641.8 -8.48763 6142.75
vt -3.42262 0.435419
v 19621.8 -3.70172 6123.32
vt -2.32453 0.62384
v 19590.6 2.06413e-12 6093.01
vt -0.611615 0.769577
v 19582 8.58698 6084.69
vt -0.141557 1.10765
v 19579.5 35.4069 6082.25
vt -0.00394119 2.16355
f 115/115/9 121/121/9 122/122/9 123/123/9 124/124/9 125/125/9 126/126/9 127/127/9 128/128/9 129/129/9 130/130/9 131/131/9 132/132/9 118/118/9 120/120/9 119/119/9 110/110/9 117/117/9 116/116/9 

usemtl Sophie_Shirt_Gray
v 19703.4 30.5952 6202.55
vt -6.80231 1.97411
vn 0.696658 -8.77031e-16 -0.717403
v 19691.2 23.6845 6190.7
vt -6.13257 1.70204
v 19699.7 25.2418 6198.94
vt -6.59823 1.76335
f 133/133/10 123/123/10 122/122/10 121/121/10 115/115/10 114/114/10 134/134/10 135/135/10 

usemtl Sophie_Skin
vn 0.696658 -1.68857e-16 -0.717403
v 19702.1 42.0474 6201.31
vt -6.73237 2.42499
v 19703.7 36.3959 6202.84
vt -6.81875 2.20249
f 133/133/11 135/135/11 134/134/11 114/114/11 113/113/11 112/112/11 136/136/11 137/137/11 

usemtl Sophie_Skirt
vn 0.696658 -3.89082e-16 -0.717403
v 19698.9 -7.04087 6198.15
vt -6.55329 0.492378
v 19672.2 -16.0483 6172.28
vt -5.09139 0.137756
f 124/124/12 138/138/12 139/139/12 127/127/12 126/126/12 125/125/12 

usemtl Sophie_Skin
v 19469.2 434.638 5975.16
vt 6.04849 17.8813
vn 0.696658 -2.40924e-16 -0.717403
v 19480.7 471.592 5986.25
vt 5.42143 19.3362
v 19548.4 448.87 6052.06
vt 1.70236 18.4416
v 19536.6 396.107 6040.52
vt 2.35455 16.3643
v 19527.8 322.96 6032.07
vt 2.83226 13.4845
v 19509.7 214.814 6014.44
vt 3.82873 9.22683
v 19505.2 188.239 6010.07
vt 4.0755 8.18054
v 19504.3 161.45 6009.17
vt 4.1262 7.12588
v 19507.4 130.657 6012.22
vt 3.95418 5.91357
v 19508.2 108.283 6012.98
vt 3.91074 5.03269
v 19511 89.7768 6015.71
vt 3.75682 4.3041
v 19516.5 77.1456 6021.04
vt 3.45562 3.80681
v 19498.8 74.9478 6003.9
vt 4.42398 3.72028
v 19467.7 56.5867 5973.62
vt 6.1353 2.9974
v 19460.5 47.4801 5966.71
vt 6.52607 2.63887
v 19458.7 52.0147 5964.95
vt 6.62553 2.8174
v 19451.5 67.0262 5957.97
vt 7.01953 3.4084
v 19448.2 82.0364 5954.74
vt 7.20243 3.99936
v 19449.6 92.5104 5956.05
vt 7.12843 4.41172
v 19450 95.9749 5956.48
vt 7.10395 4.54812
v 19455.9 106.697 5962.21
vt 6.78032 4.97026
v 19464.4 144.224 5970.42
vt 6.31596 6.44769
v 19465.5 164.934 5971.57
vt 6.25139 7.26306
v 19454.6 327.602 5960.95
vt 6.85119 13.6673
v 19458.7 376.66 5964.95
vt 6.62544 15.5987
f 140/140/13 141/141/13 71/71/13 70/70/13 142/142/13 143/143/13 144/144/13 145/145/13 146/146/13 147/147/13 148/148/13 149/149/13 150/150/13 151/151/13 152/152/13 153/153/13 154/154/13 155/155/13 156/156/13 157/157/13 158/158/13 159/159/13 160/160/13 161/161/13 162/162/13 163/163/13 164/164/13 

usemtl Sophie_Shoes
vn 0.696658 -2.30531e-16 -0.717403
v 19534.5 39.8634 6038.5
vt 2.46893 2.339
v 19533.2 40.232 6037.28
vt 2.53792 2.35351
v 19524.7 42.7229 6029.03
vt 3.00367 2.45158
v 19502.7 38.0765 6007.62
vt 4.21373 2.26865
v 19492.9 34.1452 5998.16
vt 4.74843 2.11388
v 19487 24.7742 5992.36
vt 5.07633 1.74494
v 19484.1 18.5158 5989.55
vt 5.23532 1.49854
v 19482.9 16.0235 5988.42
vt 5.29864 1.40042
v 19467.3 22.9652 5973.25
vt 6.15646 1.67372
v 19456.2 41.6679 5962.5
vt 6.76372 2.41005
v 19457.8 43.8349 5964.07
vt 6.67511 2.49536
f 151/151/14 165/165/14 166/166/14 167/167/14 168/168/14 169/169/14 170/170/14 171/171/14 172/172/14 173/173/14 174/174/14 175/175/14 154/154/14 153/153/14 152/152/14 

usemtl Sophie_Skin
v 19538.3 31.2831 6042.2
vt 2.25988 2.0012
vn 0.696658 2.50927e-17 -0.717403
v 19537.7 25.6463 6041.64
vt 2.29106 1.77927
v 19500.9 23.7421 6005.93
vt 4.30957 1.7043
f 176/176/15 177/177/15 178/178/15 170/170/15 169/169/15 168/168/15 167/167/15 166/166/15 

usemtl Sophie_Shirt_Gray
vn 0.696658 -4.03633e-16 -0.717403
v 19539.6 25.743 6043.46
vt 2.18852 1.78308
v 19540.1 18.7767 6043.97
vt 2.15939 1.50882
v 19501 16.6324 6006.03
vt 4.30383 1.4244
f 171/171/16 170/170/16 178/178/16 177/177/16 179/179/16 180/180/16 181/181/16 

usemtl Sophie_Shoes2
vn 0.696658 -3.84795e-16 -0.717403
v 19537.3 -3.68749 6041.27
vt 2.31215 0.624401
v 19532.9 0.673701 6036.99
vt 2.55409 0.796101
v 19519.5 -0.317795 6024.01
vt 3.28775 0.757066
v 19493.8 -12.807 5999.01
vt 4.70046 0.265365
v 19478.2 -17.3663 5983.82
vt 5.55903 0.0858647
v 19466.9 -10.3352 5972.91
vt 6.17568 0.362679
v 19458.6 -1.75358 5964.85
vt 6.63109 0.700539
v 19447.8 4.62678 5954.33
vt 7.22523 0.951734
v 19443.5 72.5979 5950.18
vt 7.46014 3.62776
f 171/171/17 181/181/17 180/180/17 182/182/17 183/183/17 184/184/17 185/185/17 186/186/17 187/187/17 188/188/17 189/189/17 190/190/17 175/175/17 174/174/17 173/173/17 172/172/17 

usemtl Sophie_Skirt
v 19534.9 -12.2117 6038.93
vt 2.44448 0.2888
vn 0.696658 -3.25271e-16 -0.717403
v 19524.8 -16.177 6029.12
vt 2.99866 0.132688
v 19488.7 -19.5473 5994.04
vt 4.98108 0
f 191/191/18 192/192/18 193/193/18 186/186/18 185/185/18 184/184/18 183/183/18 182/182/18 

usemtl Sophie_Shirt_Gray
vn 0.696658 8.32666e-16 -0.717403
v 19443.6 81.052 5950.25
vt 7.45593 3.9606
f 190/190/19 194/194/19 156/156/19 155/155/19 154/154/19 175/175/19 

vn 0.696658 -7.93903e-16 -0.717403
f 194/194/20 158/158/20 157/157/20 156/156/20 

v 19471.2 1226.92 5977.11
vt 5.93833 49.0736
vn 0.696658 -3.93734e-16 -0.717403
v 19462.2 1255.62 5968.36
vt 6.43254 50.2032
v 19454.8 1253.26 5961.13
vt 6.8412 50.1105
v 19461.9 1263.73 5967.99
vt 6.45325 50.5226
v 19465 1286.45 5971.02
vt 6.28233 51.4174
v 19463.8 1303.97 5969.89
vt 6.34606 52.1072
v 19461.7 1318.58 5967.88
vt 6.45963 52.6822
v 19454.2 1330.84 5960.59
vt 6.8714 53.1649
v 19444.8 1336.28 5951.39
vt 7.39134 53.3792
v 19432.9 1338.21 5939.88
vt 8.04197 53.455
v 19425.4 1335.89 5932.61
vt 8.45301 53.3637
v 19423.6 1335.32 5930.83
vt 8.55358 53.3413
v 19462.3 1384.15 5968.42
vt 6.42906 55.2637
v 19464.2 1385.63 5970.31
vt 6.32242 55.322
v 19470.5 1390.42 5976.41
vt 5.9778 55.5105
v 19519 1407.19 6023.48
vt 3.31753 56.1709
v 19538.2 1373.57 6042.16
vt 2.26181 54.8473
v 19553.6 1347.16 6057.09
vt 1.41812 53.8074
v 19569.7 1327.97 6072.71
vt 0.535173 53.052
v 19595.8 1306.79 6098.06
vt -0.897181 52.2181
v 19609 1313.77 6110.91
vt -1.62315 52.4928
v 19618.5 1321.99 6120.11
vt -2.1431 52.8165
v 19626 1333.95 6127.4
vt -2.55516 53.2874
v 19630.7 1345.67 6131.91
vt -2.81022 53.7485
v 19632.6 1361.61 6133.82
vt -2.91814 54.3764
v 19631.9 1373.33 6133.13
vt -2.87892 54.8375
v 19622.7 1389.77 6124.19
vt -2.37395 55.4848
v 19612.5 1399.85 6114.25
vt -1.81202 55.8817
v 19657.8 1372.18 6158.22
vt -4.29711 54.7925
v 19672.5 1363.17 6172.55
vt -5.10677 54.4376
v 19691.3 1343.12 6190.82
vt -6.13937 53.6485
v 19709.1 1320.57 6208.09
vt -7.11541 52.7607
v 19662.6 1027.26 6162.94
vt -4.56362 41.2127
v 19681.3 911.73 6181.11
vt -5.59071 36.6645
v 19459.5 906.791 5965.73
vt 6.58097 36.47
v 19482.3 979.701 5987.8
vt 5.33376 39.3405
v 19501.6 974.812 6006.59
vt 4.27228 39.148
v 19517.9 969.402 6022.38
vt 3.37956 38.935
v 19539 961.659 6042.91
vt 2.21931 38.6302
v 19542.8 962.766 6046.63
vt 2.00932 38.6738
v 19544.6 964.477 6048.31
vt 1.91425 38.7411
v 19545.2 967.094 6048.87
vt 1.88258 38.8441
v 19545 969.81 6048.73
vt 1.89049 38.9511
v 19543.6 972.728 6047.4
vt 1.96577 39.066
v 19538.6 974.841 6042.49
vt 2.2431 39.1492
v 19516 989.231 6020.55
vt 3.48307 39.7157
v 19517.8 991.747 6022.3
vt 3.38404 39.8147
v 19561.4 980.95 6064.63
vt 0.991972 39.3896
v 19564.4 982.119 6067.52
vt 0.828685 39.4357
v 19565.8 984.672 6068.93
vt 0.749149 39.5362
v 19566.3 987.862 6069.45
vt 0.719834 39.6618
v 19566 990.946 6069.08
vt 0.740759 39.7832
v 19564.5 993.604 6067.67
vt 0.820324 39.8878
v 19561.1 995.412 6064.34
vt 1.00872 39.959
v 19540.4 1003.71 6044.26
vt 2.14331 40.2856
v 19536.4 1005.94 6040.33
vt 2.36522 40.3735
v 19522.2 1009.13 6026.55
vt 3.14396 40.4991
v 19525.8 1011.04 6030.03
vt 2.94719 40.5745
v 19542.6 1011.04 6046.41
vt 2.02189 40.5745
v 19567.5 1002.64 6070.56
vt 0.657037 40.2437
v 19570.8 1002.81 6073.8
vt 0.474086 40.2503
v 19572.6 1004.31 6075.51
vt 0.377082 40.3093
v 19573.9 1007.31 6076.78
vt 0.305381 40.4274
v 19574 1010.1 6076.86
vt 0.301131 40.5371
v 19573.5 1012.99 6076.41
vt 0.326463 40.651
v 19571.5 1015.77 6074.47
vt 0.436131 40.7607
v 19546.2 1027.56 6049.91
vt 1.82405 41.2247
v 19542.5 1028.54 6046.31
vt 2.02762 41.2632
v 19522.4 1029.7 6026.77
vt 3.13168 41.3088
v 19538 1034.41 6041.93
vt 2.27512 41.4944
v 19552.3 1032.12 6055.77
vt 1.4927 41.4042
v 19559.4 1029.44 6062.73
vt 1.0994 41.2988
v 19563.1 1029.98 6066.27
vt 0.899247 41.3199
v 19565.2 1031.67 6068.32
vt 0.783356 41.3866
v 19566 1033.99 6069.13
vt 0.7377 41.478
v 19566 1036.58 6069.07
vt 0.741226 41.5798
v 19564.9 1039.17 6068.01
vt 0.800894 41.6816
v 19559.7 1043.89 6063.04
vt 1.08184 41.8677
v 19539.1 1051.47 6042.97
vt 2.21609 42.1662
v 19501.9 1042.8 6006.9
vt 4.25432 41.8248
v 19500.9 1051.7 6005.91
vt 4.31025 42.1752
v 19484.2 1185.54 5989.72
vt 5.22549 47.4442
f 195/195/21 196/196/21 197/197/21 198/198/21 199/199/21 200/200/21 201/201/21 202/202/21 203/203/21 204/204/21 205/205/21 206/206/21 207/207/21 208/208/21 209/209/21 210/210/21 211/211/21 212/212/21 213/213/21 214/214/21 215/215/21 216/216/21 217/217/21 218/218/21 219/219/21 220/220/21 221/221/21 222/222/21 223/223/21 224/224/21 225/225/21 226/226/21 44/44/21 43/43/21 42/42/21 41/41/21 40/40/21 39/39/21 227/227/21 228/228/21 81/81/21 80/80/21 79/79/21 78/78/21 77/77/21 229/229/21 230/230/21 231/231/21 232/232/21 233/233/21 234/234/21 235/235/21 236/236/21 237/237/21 238/238/21 239/239/21 240/240/21 241/241/21 242/242/21 243/243/21 244/244/21 245/245/21 246/246/21 247/247/21 248/248/21 249/249/21 250/250/21 251/251/21 252/252/21 253/253/21 254/254/21 255/255/21 256/256/21 257/257/21 258/258/21 259/259/21 260/260/21 261/261/21 262/262/21 263/263/21 264/264/21 265/265/21 266/266/21 267/267/21 268/268/21 269/269/21 270/270/21 271/271/21 272/272/21 273/273/21 274/274/21 275/275/21 276/276/21 

usemtl Sophie_Skin
v 19424.8 1334.77 5932
vt 8.4872 53.3196
vn 0.696658 -4.60904e-16 -0.717403
v 19453.1 1250.74 5959.48
vt 6.9345 50.0114
v 19414 1192.79 5921.47
vt 9.0824 47.7297
v 19386.6 1157.71 5894.88
vt 10.5853 46.3488
v 19426.2 1091.22 5933.37
vt 8.40976 43.7311
v 19473.9 1041.26 5979.7
vt 5.79153 41.7641
v 19487 1039.79 5992.37
vt 5.07547 41.7063
v 19496.4 1042.14 6001.57
vt 4.55576 41.7987
v 19476.6 981.135 5982.29
vt 5.64509 39.3969
v 19458.9 996.162 5965.13
vt 6.615 39.9886
v 19449.7 1007.67 5956.22
vt 7.11869 40.4415
v 19440.2 1016.82 5946.96
vt 7.64206 40.8019
v 19383.2 1068.39 5891.6
vt 10.7703 42.8321
v 19340.7 1124.41 5850.34
vt 13.1021 45.0375
v 19327.7 1138.29 5837.66
vt 13.8186 45.584
v 19325.2 1145.63 5835.25
vt 13.955 45.8733
v 19325.4 1153.64 5835.43
vt 13.9447 46.1884
v 19327.6 1163.22 5837.63
vt 13.8207 46.5655
v 19333.6 1177.13 5843.45
vt 13.4914 47.1134
v 19350.2 1211.41 5859.55
vt 12.5819 48.4629
v 19377.1 1256.27 5885.64
vt 11.1072 50.2291
v 19397.8 1283.06 5905.75
vt 9.97077 51.2838
v 19409.4 1307.21 5917.09
vt 9.32992 52.2345
f 277/277/22 205/205/22 204/204/22 203/203/22 202/202/22 201/201/22 200/200/22 199/199/22 198/198/22 197/197/22 278/278/22 279/279/22 280/280/22 281/281/22 282/282/22 283/283/22 284/284/22 275/275/22 274/274/22 273/273/22 272/272/22 271/271/22 270/270/22 269/269/22 268/268/22 267/267/22 266/266/22 265/265/22 264/264/22 263/263/22 262/262/22 261/261/22 260/260/22 259/259/22 258/258/22 257/257/22 256/256/22 255/255/22 254/254/22 253/253/22 252/252/22 251/251/22 250/250/22 249/249/22 248/248/22 247/247/22 246/246/22 245/245/22 244/244/22 243/243/22 242/242/22 241/241/22 240/240/22 239/239/22 238/238/22 237/237/22 236/236/22 235/235/22 234/234/22 233/233/22 232/232/22 231/231/22 230/230/22 285/285/22 286/286/22 287/287/22 288/288/22 289/289/22 290/290/22 291/291/22 292/292/22 293/293/22 294/294/22 295/295/22 296/296/22 297/297/22 298/298/22 299/299/22 

usemtl Sophie_Hair
vn 0.696658 -8.67929e-17 -0.717403
v 19492.4 1488.58 5997.64
vt 4.7778 59.375
v 19509.9 1576.29 6014.6
vt 3.81944 62.8281
v 19521.5 1618.44 6025.88
vt 3.1822 64.4876
v 19530.3 1637.93 6034.48
vt 2.69615 65.255
v 19540.8 1652.95 6044.66
vt 2.12064 65.8463
v 19554 1665.9 6057.49
vt 1.39546 66.3564
v 19567.1 1672.17 6070.15
vt 0.680081 66.6031
v 19573.6 1673.11 6076.48
vt 0.322411 66.6401
v 19578.8 1670.29 6081.5
vt 0.0386847 66.529
v 19588.8 1671.66 6091.28
vt -0.513834 66.5828
v 19602.3 1665.42 6104.41
vt -1.25588 66.3373
v 19613.4 1656 6115.14
vt -1.86263 65.9663
v 19626.8 1638.2 6128.16
vt -2.59835 65.2657
v 19638.9 1613.03 6139.92
vt -3.26305 64.2747
v 19644.1 1593.24 6144.96
vt -3.54781 63.4957
v 19647.4 1549.29 6148.15
vt -3.72801 61.7653
v 19647.4 1511.45 6148.15
vt -3.72801 60.2754
v 19650 1440.67 6150.72
vt -3.87298 57.4888
v 19608 1416.72 6109.91
vt -1.56692 56.5458
v 19607.1 1438.65 6109
vt -1.51533 57.4095
v 19608.6 1462.49 6110.45
vt -1.59753 58.3478
v 19614.4 1468.47 6116.16
vt -1.92006 58.5835
v 19624.6 1484.55 6126.01
vt -2.47694 59.2164
v 19628 1498.37 6129.35
vt -2.66543 59.7604
v 19630.3 1498.96 6131.6
vt -2.79284 59.7836
v 19636.6 1511.02 6137.65
vt -3.13452 60.2585
v 19638.1 1519.4 6139.08
vt -3.21558 60.5886
v 19638.4 1529.14 6139.39
vt -3.23297 60.9721
v 19638.4 1543.09 6139.39
vt -3.23297 61.521
v 19635.4 1546.62 6136.52
vt -3.07081 61.66
v 19633.1 1544.41 6134.3
vt -2.94526 61.5731
v 19633.1 1552.06 6134.3
vt -2.94526 61.8743
v 19629.7 1573.6 6130.94
vt -2.75538 62.7222
v 19627.1 1584.99 6128.45
vt -2.61454 63.1709
v 19627.6 1573.91 6128.96
vt -2.64362 62.7346
v 19615.3 1601.01 6116.95
vt -1.96483 63.8013
v 19604.1 1620.22 6106.14
vt -1.35388 64.5577
v 19608.9 1597.8 6110.78
vt -1.61572 63.6752
v 19610.8 1585.73 6112.66
vt -1.72239 63.2
v 19609.4 1581.05 6111.29
vt -1.64481 63.0158
v 19604 1584.01 6105.97
vt -1.34421 63.1321
v 19599.5 1594.6 6101.68
vt -1.10174 63.5491
v 19589.8 1621.94 6092.24
vt -0.568394 64.6255
v 19581 1634.01 6083.66
vt -0.0835472 65.1007
v 19589.8 1589.92 6092.24
vt -0.568394 63.3649
v 19590.7 1580.81 6093.1
vt -0.616905 63.0061
v 19585.2 1593.37 6087.78
vt -0.316282 63.5007
v 19584.9 1584.5 6087.44
vt -0.296875 63.1515
v 19573.7 1636.23 6076.63
vt 0.314063 65.188
v 19571.4 1584.01 6074.4
vt 0.440113 63.1321
v 19560.9 1612.05 6064.21
vt 1.01607 64.2362
v 19556.3 1601.6 6059.7
vt 1.27077 63.8248
v 19551.7 1582.79 6055.19
vt 1.52566 63.0843
v 19552.8 1596.68 6056.28
vt 1.46378 63.6308
v 19545.5 1578.87 6049.17
vt 1.86593 62.9296
v 19550.5 1603.22 6054.09
vt 1.58751 63.8886
v 19555.8 1628.89 6059.2
vt 1.2988 64.8991
v 19542.8 1601.39 6046.61
vt 2.01029 63.8164
v 19535.3 1574.68 6039.31
vt 2.42273 62.7647
v 19530 1563.15 6034.21
vt 2.71142 62.311
v 19530.4 1575.72 6034.57
vt 2.69082 62.8059
v 19526.2 1558.71 6030.5
vt 2.92085 62.1361
v 19525.1 1544.82 6029.4
vt 2.98312 61.5894
v 19522.3 1547.28 6026.7
vt 3.13537 61.6863
v 19520.4 1548.25 6024.87
vt 3.23917 61.7243
v 19517.2 1545.83 6021.69
vt 3.41886 61.6289
v 19516.1 1542.9 6020.65
vt 3.47738 61.5136
v 19517.8 1510.02 6022.3
vt 3.38447 60.2192
v 19522.3 1501.78 6026.73
vt 3.13402 59.8948
v 19524.6 1499.13 6028.9
vt 3.01145 59.7904
v 19527.3 1498.9 6031.55
vt 2.86164 59.7813
v 19530 1500.4 6034.12
vt 2.7164 59.8403
v 19531.9 1503.12 6036.04
vt 2.60751 59.9476
v 19534 1494.51 6038
vt 2.49703 59.6087
v 19540.8 1463.63 6044.64
vt 2.12174 58.3928
v 19542.3 1447.2 6046.14
vt 2.03694 57.7461
v 19540.8 1434.82 6044.64
vt 2.12174 57.2585
v 19536.4 1421.62 6040.33
vt 2.36556 56.739
v 19524 1409.51 6028.32
vt 3.04401 56.262
f 209/209/23 208/208/23 300/300/23 301/301/23 302/302/23 303/303/23 304/304/23 305/305/23 306/306/23 307/307/23 308/308/23 309/309/23 310/310/23 311/311/23 312/312/23 313/313/23 314/314/23 315/315/23 316/316/23 317/317/23 223/223/23 222/222/23 318/318/23 319/319/23 320/320/23 321/321/23 322/322/23 323/323/23 324/324/23 325/325/23 326/326/23 327/327/23 328/328/23 329/329/23 330/330/23 331/331/23 332/332/23 333/333/23 334/334/23 335/335/23 336/336/23 337/337/23 338/338/23 339/339/23 340/340/23 341/341/23 342/342/23 343/343/23 344/344/23 345/345/23 346/346/23 347/347/23 348/348/23 349/349/23 350/350/23 351/351/23 352/352/23 353/353/23 354/354/23 355/355/23 356/356/23 357/357/23 358/358/23 359/359/23 360/360/23 361/361/23 362/362/23 363/363/23 364/364/23 365/365/23 366/366/23 367/367/23 368/368/23 369/369/23 370/370/23 371/371/23 372/372/23 373/373/23 374/374/23 375/375/23 376/376/23 377/377/23 378/378/23 210/210/23 

usemtl Sophie_Skin
vn 0.696658 9.2267e-17 -0.717403
v 19538.3 1485.19 6042.25
vt 2.25656 59.2417
v 19547.8 1473.62 6051.44
vt 1.73764 58.786
v 19555.9 1462.69 6059.28
vt 1.29469 58.3557
v 19567.9 1451.44 6070.92
vt 0.636515 57.9128
v 19579.4 1448.22 6082.12
vt 0.0037129 57.7862
v 19590.9 1449.19 6093.32
vt -0.629089 57.8241
v 19602.5 1456.26 6104.51
vt -1.26193 58.1026
f 211/211/24 210/210/24 378/378/24 377/377/24 376/376/24 375/375/24 374/374/24 373/373/24 379/379/24 380/380/24 381/381/24 382/382/24 383/383/24 384/384/24 385/385/24 320/320/24 319/319/24 318/318/24 222/222/24 221/221/24 220/220/24 219/219/24 218/218/24 217/217/24 216/216/24 215/215/24 214/214/24 213/213/24 212/212/24 

vn 0.696658 -2.54353e-16 -0.717403
f 363/363/25 362/362/25 361/361/25 360/360/25 359/359/25 358/358/25 357/357/25 356/356/25 355/355/25 354/354/25 353/353/25 352/352/25 351/351/25 350/350/25 349/349/25 348/348/25 347/347/25 346/346/25 345/345/25 344/344/25 343/343/25 342/342/25 341/341/25 340/340/25 339/339/25 338/338/25 337/337/25 336/336/25 335/335/25 334/334/25 333/333/25 332/332/25 331/331/25 330/330/25 329/329/25 328/328/25 327/327/25 326/326/25 325/325/25 324/324/25 323/323/25 322/322/25 321/321/25 320/320/25 385/385/25 384/384/25 383/383/25 382/382/25 381/381/25 380/380/25 379/379/25 373/373/25 372/372/25 371/371/25 370/370/25 369/369/25 368/368/25 367/367/25 366/366/25 365/365/25 364/364/25 

g Mesh2 Model

usemtl FrontColor
v 19913.3 6.15146e-13 1617.72
vt 783.988 -63.6897
vn 4.76446e-16 1 -2.68867e-16
v 19913.2 6.11163e-13 1602.72
vt 783.984 -63.0992
v 18998.2 1.04882e-12 1609.11
vt 747.961 -63.3507
v 18998.3 1.0528e-12 1624.11
vt 747.965 -63.9412
f 386/386/26 387/387/26 388/388/26 389/389/26 

vt -783.988 -63.6897
vn -4.76446e-16 -1 2.68867e-16
vt -783.984 -63.0992
v 20043.2 5.48982e-13 1601.81
vt -789.102 -63.0634
v 20043.3 5.52965e-13 1616.81
vt -789.106 -63.654
f 386/390/27 387/391/27 390/392/27 391/393/27 

v 19912.8 5.97886e-13 1552.72
vt -783.97 -61.1307
v 20042.8 5.35705e-13 1551.81
vt -789.088 -61.095
f 387/391/27 392/394/27 393/395/27 390/392/27 

vt 783.97 -61.1307
v 18932.9 1.06663e-12 1559.56
vt 745.388 -61.4001
v 18933.2 1.07991e-12 1609.56
vt 745.402 -63.3685
v 18983.2 1.05599e-12 1609.21
vt 747.37 -63.3548
f 387/387/26 392/396/26 394/397/26 395/398/26 396/399/26 388/388/26 

v 18917.6 2.41291e-12 6539.79
vt 744.789 -257.472
v 18967.6 2.38899e-12 6539.44
vt 746.757 -257.458
v 19912.5 5.84609e-13 1502.72
vt 783.956 -59.1623
v 18882.5 1.07727e-12 1509.91
vt 743.406 -59.4454
f 397/400/26 398/401/26 395/398/26 394/397/26 392/396/26 399/402/26 400/403/26 

vt -744.789 -257.472
vt -746.757 -257.458
v 18968.5 2.42351e-12 6669.44
vt -746.793 -262.576
v 18918.5 2.44743e-12 6669.79
vt -744.824 -262.59
f 397/404/27 398/405/27 401/406/27 402/407/27 

v 19017.6 2.36508e-12 6539.09
vt -748.725 -257.445
v 19018.5 2.3996e-12 6669.09
vt -748.761 -262.563
f 398/405/27 403/408/27 404/409/27 401/406/27 

vt 748.725 -257.445
f 398/401/26 403/410/26 396/399/26 395/398/26 

v 19032.6 2.3579e-12 6538.99
vt 749.316 -257.44
f 403/410/26 405/411/26 389/389/26 388/388/26 396/399/26 

vt -749.316 -257.44
v 19033.5 2.39242e-12 6668.98
vt -749.352 -262.558
f 403/408/27 405/412/27 406/413/27 404/409/27 

vn -2.2182e-16 -1 1.97541e-15
v 19947.6 1.92025e-12 6532.6
vt -785.339 -257.189
v 19948.5 2.39892e-12 6662.6
vt -785.374 -262.307
f 406/413/28 405/412/28 407/414/28 408/415/28 

usemtl Stone_Pavers_Walk
vt 10.4072 -3.57556
vn 4.61057e-16 1 -2.72251e-16
vt 10.9075 -3.57207
v 20077.6 1.93182e-12 6531.69
vt 10.9786 -3.57157
v 20077.2 1.8413e-12 6468.54
vt 10.9783 -3.53704
vt 10.9598 -0.884083
vt 10.8887 -0.884579
vt 10.3884 -0.888072
f 405/416/29 407/417/29 409/418/29 410/419/29 391/420/29 386/421/29 389/422/29 

usemtl FrontColor
v 19017.6 100 6539.09
vt 746.91 3.93701
vn 0.00698126 2.8452e-17 0.999976
v 19032.6 100 6538.99
vt 747.501 3.93701
vt 747.501 8.53574e-14
vt 783.524 6.81269e-14
vt 788.642 6.85827e-14
v 20077.6 2608 6531.69
vt 788.642 102.677
v 19032.6 2608 6538.99
vt 747.501 102.677
v 19032.6 2508 6538.99
vt 747.501 98.7402
v 19017.6 2508 6539.09
vt 746.91 98.7402
v 19017.6 2458 6539.09
vt 746.91 96.7717
v 19002.6 2458 6539.2
vt 746.319 96.7717
v 19002.6 2438 6539.2
vt 746.319 95.9843
v 18997.6 2438 6539.23
vt 746.123 95.9843
v 18997.6 1220 6539.23
vt 746.123 48.0315
v 19002.6 1220 6539.2
vt 746.319 48.0315
v 19002.6 1200 6539.2
vt 746.319 47.2441
v 19017.6 1200 6539.09
vt 746.91 47.2441
v 19017.6 1150 6539.09
vt 746.91 45.2756
v 19027.6 1150 6539.02
vt 747.304 45.2756
v 19027.6 1100 6539.02
vt 747.304 43.3071
v 19017.6 1100 6539.09
vt 746.91 43.3071
f 411/423/30 412/424/30 405/425/30 407/426/30 409/427/30 413/428/30 414/429/30 415/430/30 416/431/30 417/432/30 418/433/30 419/434/30 420/435/30 421/436/30 422/437/30 423/438/30 424/439/30 425/440/30 426/441/30 427/442/30 428/443/30 

usemtl Cladding_Stucco_White
vt 41.6287 -9.53483
vn 4.80607e-16 1 -2.6887e-16
v 19017.3 100 6489.09
vt 41.5951 -9.46208
vt 41.5959 -9.53498
f 412/444/31 429/445/31 411/446/31

v 19012.5 100 5809.11
vt 41.5847 -8.47056
f 412/444/31 430/447/31 429/445/31

v 19012.2 100 5759.11
vt 41.584 -8.39765
f 412/444/31 431/448/31 430/447/31

v 19005.2 100 4759.13
vt 41.5687 -6.93954
f 412/444/31 432/449/31 431/448/31

v 19004.9 100 4709.14
vt 41.5679 -6.86663
f 412/444/31 433/450/31 432/449/31

v 18998.3 100 1624.11
vt 41.5536 -2.36819
f 434/451/31 433/450/31 412/444/31

v 18997.9 100 3709.16
vt 41.5526 -5.40852
f 435/452/31 433/450/31 434/451/31

v 18984.9 100 4709.28
vt 41.5242 -6.86684
f 435/452/31 436/453/31 433/450/31

v 18977.9 100 3709.3
vt 41.5089 -5.40872
f 437/454/31 436/453/31 435/452/31

v 18954.9 100 4709.49
vt 41.4586 -6.86714
f 437/454/31 438/455/31 436/453/31

v 18947.9 100 3709.51
vt 41.4433 -5.40903
f 438/455/31 437/454/31 439/456/31

usemtl FrontColor
vt 745.979 -146.044
vt 747.16 -146.035
v 18977.5 100 3659.3
vt 747.147 -144.067
v 18947.5 100 3659.51
vt 745.965 -144.075
f 439/457/26 437/458/26 440/459/26 441/460/26 

v 18977.9 150 3709.3
vt 746.123 5.90551
vn 0.00698126 2.65535e-16 0.999976
v 18967.9 150 3709.37
vt 745.729 5.90551
v 18967.9 1100 3709.37
vt 745.729 43.3071
v 18947.9 1100 3709.51
vt 744.941 43.3071
vt 744.941 3.93701
vt 746.123 3.93701
v 18997.9 1100 3709.16
v 18977.9 1100 3709.3
vt 746.123 43.3071
f 442/461/32 443/462/32 444/463/32 445/464/32 439/465/32 437/466/32 435/423/32 446/443/32 447/467/32 

vt 746.767 -146.038
v 18974.9 150 4709.35
vt 747.041 -185.407
v 18984.9 150 4709.28
vt 747.435 -185.405
f 442/458/26 443/468/26 448/469/26 449/470/26 

f 447/467/32 444/463/32 443/462/32 442/461/32 

v 18947.5 1100 3659.51
vt 747.948 -146.03
v 18997.5 1100 3659.16
vt 747.934 -144.061
v 18977.5 1100 3659.3
v 18967.5 1100 3659.37
vt 746.753 -144.07
f 450/460/26 445/457/26 444/468/26 447/458/26 446/471/26 451/472/26 452/459/26 453/473/26 

vt 149.279 3.93701
vn -0.999976 4.78311e-16 0.00698126
vt 151.248 3.93701
vt 151.248 43.3071
vt 149.279 43.3071
f 441/474/33 439/475/33 445/476/33 450/477/33 

usemtl Cladding_Stucco_White
v 18940.5 100 2659.54
vt 41.4273 -3.878
vt 41.4425 -5.33612
f 454/478/31 439/456/31 441/479/31

f 454/478/31 438/455/31 439/456/31

v 18940.2 100 2609.54
vt 41.4265 -3.8051
f 455/480/31 438/455/31 454/478/31

v 18933.2 100 1609.56
vt 41.4112 -2.34698
f 456/481/31 438/455/31 455/480/31

v 18917.6 100 6539.79
vt 41.3771 -9.536
f 456/481/31 457/482/31 438/455/31

v 18932.9 100 1559.56
vt 41.4105 -2.27408
f 457/482/31 456/481/31 458/483/31

usemtl FrontColor
vt -68.5708 3.9883e-13
vn 0.999976 -4.78311e-16 -0.00698126
vt -66.6023 3.98307e-13
vt -66.6023 3.93701
vt -68.5708 3.93701
f 395/484/34 394/485/34 458/486/34 456/487/34 

v 18963.2 100 1609.35
vt 746.583 -63.3603
v 18962.9 100 1559.35
vt 746.569 -61.3918
f 456/398/26 459/488/26 460/489/26 458/397/26 

vt -746.123 3.93701
vn -0.00698126 -2.65535e-16 -0.999976
v 18983.2 100 1609.21
vt -746.91 3.93701
vt -746.91 2.33666e-14
vt -744.941 2.43081e-14
vt -744.941 3.93701
f 459/490/35 461/491/35 396/492/35 395/493/35 456/494/35 

v 18982.9 100 1559.21
vt 747.357 -61.3863
f 462/495/26 460/489/26 459/488/26 461/399/26 

v 18932.9 1100 1559.56
vt -744.941 43.3071
v 18982.9 1100 1559.21
vt -746.91 43.3071
f 460/490/35 458/494/35 463/496/35 464/497/35 462/491/35 

usemtl Cladding_Stucco_White
v 19912.5 100 1502.72
vt 43.5531 -2.19119
vt 41.4761 -2.27377
f 465/498/31 458/483/31 460/499/31

v 18882.5 100 1509.91
vt 41.3003 -2.20168
f 466/500/31 458/483/31 465/498/31

f 458/483/31 466/500/31 457/482/31

vt 14.5925 1.47508e-14
vn -0.999976 4.08193e-16 0.00698126
vt 14.8769 1.48012e-14
v 18918.5 2608 6669.79
vt 14.8769 3.80286
v 18917.6 2608 6539.79
vt 14.5925 3.80286
v 18917.6 2508 6539.79
vt 14.5925 3.65704
vt 14.5925 0.145815
vt 3.59077 0.145815
vt 3.59077 1.28033e-14
f 397/501/36 402/502/36 467/503/36 468/504/36 469/505/36 457/506/36 466/507/36 400/508/36 

vt 41.5278 4.78226e-16
vn 0.00698126 3.0352e-16 0.999976
vt 43.5291 4.87699e-16
v 20078.5 2.41049e-12 6661.69
vt 43.8135 5.04578e-16
v 20078.5 2608 6661.69
vt 43.8135 3.80286
vt 41.2763 3.80286
vt 41.2763 5.58432e-16
vt 41.3856 5.2356e-16
vt 41.495 4.88687e-16
f 406/509/37 408/510/37 470/511/37 471/512/37 467/513/37 402/514/37 401/515/37 404/516/37 

usemtl FrontColor
vn 1.14747e-16 -1 3.68137e-15
vt -790.457 -257.153
vt -790.492 -262.271
f 408/415/38 407/414/38 409/517/38 470/518/38 

usemtl Cladding_Stucco_White
vt -14.5925 2.16005e-16
vn 0.999976 8.90441e-17 -0.00698126
vt -14.5925 3.80286
vt -14.8769 3.80286
vt -14.8769 9.13979e-16
f 409/519/39 413/520/39 471/521/39 470/522/39 

vt 41.3791 -9.72556
vn 2.51997e-16 1 -1.10026e-16
vt 43.9162 -9.71375
vt 43.9143 -9.52419
v 18998.3 2608 1624.11
v 19913.3 2608 1617.72
vt 43.5549 -2.35888
v 19912.5 2608 1502.72
v 18912.5 2608 1509.7
vt 41.366 -2.20137
v 18913 2608 1574.7
vt 41.3669 -2.29615
f 467/523/40 471/524/40 413/525/40 414/444/40 472/451/40 473/526/40 474/498/40 475/527/40 476/528/40 468/482/40 

vt -14.5925 3.65704
v 18998.3 2508 1624.11
vt -3.8423 3.65704
vt -3.8423 3.80286
f 415/529/34 477/530/34 472/531/34 414/520/34 

usemtl FrontColor
vn 5.17332e-16 1 -4.15715e-16
v 18998.2 2508 1609.11
v 18983.2 2508 1609.21
f 416/410/41 415/411/41 477/389/41 478/388/41 479/399/41 

v 19913.3 2508 1617.72
vn -3.12509e-16 1 -2.63359e-16
v 19913.2 2508 1602.72
f 480/386/42 481/387/42 478/388/42 477/389/42 

vt -69.1614 98.7402
vn 0.999976 1.30009e-16 -0.00698126
v 19913.3 100 1617.72
vt -69.1614 3.93701
v 19913.2 100 1602.72
v 19913.2 1100 1602.72
vt -68.5708 43.3071
v 19913.3 1100 1612.72
vt -68.9645 43.3071
v 19913.3 1150 1612.72
vt -68.9645 45.2756
v 19913.2 1150 1602.72
vt -68.5708 45.2756
v 19913.2 1200 1602.72
vt -68.5708 47.2441
v 19913.1 1200 1587.72
vt -67.9803 47.2441
v 19913.1 1220 1587.72
vt -67.9803 48.0315
v 19913 1220 1582.72
vt -67.7834 48.0315
v 19913 2438 1582.72
vt -67.7834 95.9843
v 19913.1 2438 1587.72
vt -67.9803 95.9843
v 19913.1 2458 1587.72
vt -67.9803 96.7717
v 19913.2 2458 1602.72
vt -68.5708 96.7717
vt -68.5708 98.7402
f 480/532/43 482/533/43 483/487/43 484/534/43 485/535/43 486/536/43 487/537/43 488/538/43 489/539/43 490/540/43 491/541/43 492/542/43 493/543/43 494/544/43 495/545/43 481/546/43 

usemtl Cladding_Stucco_White
vt 41.5278 3.65704
vt 43.5291 3.65704
vt 43.5291 0.145815
vt 41.5278 0.145815
vt 41.5278 8.54966e-16
vt 43.5291 2.168e-16
vt 43.8135 1.26131e-16
v 20043.3 2608 1616.81
vt 43.5291 3.80286
vt 41.5278 3.80286
f 477/547/32 480/548/32 482/549/32 434/550/32 389/551/32 386/552/32 391/553/32 496/512/32 473/554/32 472/555/32 

v 19863.2 100 1603.07
vt 43.4453 -2.33752
f 497/556/31 434/451/31 482/526/31

v 19862.8 100 1553.07
vt 43.4445 -2.26461
f 434/451/31 497/556/31 498/557/31

usemtl FrontColor
v 19912.8 100 1552.72
vn 5.34388e-16 1 -4.80925e-17
vt 782.002 -61.1445
vt 782.015 -63.1129
f 499/396/44 498/558/44 497/559/44 483/387/44 

vt -783.524 3.93701
vt -781.556 3.93701
v 19862.8 1100 1553.07
vt -781.556 43.3071
v 19912.8 1100 1552.72
vt -783.524 43.3071
f 499/560/35 498/561/35 500/562/35 501/563/35 

usemtl Cladding_Stucco_White
vt 43.5539 -2.2641
f 465/498/31 498/557/31 499/564/31

f 465/498/31 434/451/31 498/557/31

vt 41.5206 -2.34647
f 465/498/31 461/565/31 434/451/31

vt 41.5198 -2.27357
f 465/498/31 462/566/31 461/565/31

f 465/498/31 460/499/31 462/566/31

usemtl FrontColor
v 18983.2 1100 1609.21
vt -66.6023 43.3071
v 18983 1100 1579.21
vt -67.3897 43.3071
v 18983 150 1579.21
vt -67.3897 5.90551
v 18983.1 150 1589.21
vt -67.7834 5.90551
v 18983.1 1100 1589.21
vt -67.7834 43.3071
f 502/534/34 461/487/34 462/486/34 464/567/34 503/568/34 504/569/34 505/570/34 506/571/34 

v 18963.2 1100 1609.35
v 18963.2 150 1609.35
v 18953.2 150 1609.42
v 18953.2 1100 1609.42
v 18933.2 1100 1609.56
f 456/465/32 459/466/32 461/423/32 502/443/32 507/467/32 508/461/32 509/462/32 510/463/32 511/464/32 

usemtl Cladding_Stucco_White
vt 41.4768 -2.34668
f 455/480/31 459/572/31 456/481/31

v 18970.2 100 2609.33
vt 41.4921 -3.80479
f 459/572/31 455/480/31 512/573/31

usemtl FrontColor
vt 745.691 -104.706
v 18970.5 100 2659.33
vt 746.872 -104.698
vt 746.858 -102.729
vt 745.677 -102.738
f 454/574/26 513/575/26 512/576/26 455/577/26 

usemtl Cladding_Stucco_White
vt 41.4929 -3.8777
f 441/479/31 513/578/31 454/478/31

vt 41.5081 -5.33581
f 513/578/31 441/479/31 440/579/31

usemtl FrontColor
vt -745.729 43.3071
v 18967.5 150 3659.37
vt -745.729 5.90551
v 18977.5 150 3659.3
vt -746.123 5.90551
vt -746.123 43.3071
v 18997.5 100 3659.16
f 440/490/35 441/494/35 450/496/35 453/580/35 514/581/35 515/582/35 452/583/35 451/497/35 516/491/35 

v 18960.5 1100 2659.4
vt 746.478 -104.701
v 18940.5 1100 2659.54
v 18930.5 1100 2659.6
vt 745.297 -104.709
v 18937.5 1100 3659.58
vt 745.572 -144.078
f 450/460/26 453/473/26 517/584/26 518/574/26 519/585/26 520/586/26 

v 18970.5 1100 2659.33
f 521/575/26 517/584/26 453/473/26 452/459/26 

v 18940.2 1100 2609.54
v 18990.5 1100 2659.19
vt 747.659 -104.692
v 18990.2 1100 2609.19
vt 747.645 -102.724
v 18970.2 1100 2609.33
v 18960.2 1100 2609.4
vt 746.464 -102.732
f 522/577/26 518/574/26 517/584/26 521/575/26 523/587/26 524/588/26 525/576/26 526/589/26 

vt 109.909 3.93701
vt 109.909 43.3071
vt 107.941 43.3071
vt 107.941 3.93701
f 454/590/33 518/591/33 522/592/33 455/593/33 

v 18990.5 100 2659.19
v 18970.5 150 2659.33
v 18960.5 150 2659.4
f 454/465/32 513/466/32 527/423/32 523/443/32 521/467/32 528/461/32 529/462/32 517/463/32 518/464/32 

v 18990.2 100 2609.19
f 530/588/26 512/576/26 513/575/26 527/587/26 

usemtl Cladding_Stucco_White
vt 41.5359 -3.80459
f 461/565/31 512/573/31 530/594/31

f 459/572/31 512/573/31 461/565/31

usemtl FrontColor
v 18960.2 150 2609.4
v 18970.2 150 2609.33
f 531/581/35 532/582/35 525/583/35 524/497/35 530/491/35 512/490/35 455/494/35 522/496/35 526/580/35 

vt 746.189 -63.363
f 508/488/26 509/595/26 531/589/26 532/576/26 

f 507/467/32 510/463/32 509/462/32 508/461/32 

vn 2.37097e-15 1 -7.58917e-16
vt 747.365 -62.5674
vt 747.362 -62.1737
f 463/397/45 511/398/45 510/595/45 507/488/45 502/399/45 506/596/45 503/597/45 464/495/45 

vt 66.6023 3.93701
vt 68.5708 3.93701
vt 68.5708 43.3071
vt 66.6023 43.3071
f 458/598/33 456/599/33 511/600/33 463/601/33 

vt -745.388 -61.4001
vt -745.402 -63.3685
v 18923.2 1100 1609.63
vt -745.008 -63.3713
v 18922.9 1100 1559.63
vt -744.995 -61.4028
f 463/602/27 511/603/27 533/604/27 534/605/27 

vt 745.008 -63.3713
v 18930.2 1100 2609.61
vt 745.283 -102.74
f 522/577/26 526/589/26 510/595/26 511/398/26 533/606/26 535/607/26 

f 507/488/26 510/595/26 526/589/26 525/576/26 

usemtl Translucent_Glass_Blue
vt 68.5708 5.90551
vt 107.941 5.90551
f 509/608/33 531/609/33 526/592/33 510/600/33 

usemtl FrontColor
f 532/582/35 531/581/35 526/580/35 525/583/35 

usemtl Translucent_Glass_Blue
vt -107.941 5.90551
vt -68.5708 5.90551
vt -107.941 43.3071
f 532/610/34 508/611/34 507/534/34 525/612/34 

usemtl FrontColor
v 19000.2 1100 2609.12
vt 748.039 -102.721
v 18993.3 1100 1619.14
vt 747.767 -63.7457
v 18993.2 1100 1609.14
vt 747.764 -63.352
f 502/399/26 507/488/26 525/576/26 524/588/26 536/613/26 537/614/26 538/615/26 

vt -747.659 -104.692
vt -747.645 -102.724
vt -748.039 -102.721
v 19000.5 1100 2659.12
vt -748.053 -104.69
f 523/616/27 524/617/27 536/618/27 539/619/27 

vt -107.941 3.93701
vt -109.909 43.3071
vt -109.909 3.93701
f 530/620/34 524/612/34 523/621/34 527/622/34 

usemtl Cladding_Stucco_White
vt 41.5366 -3.87749
f 434/451/31 530/594/31 527/623/31

f 434/451/31 461/565/31 530/594/31

vt 41.5519 -5.33561
f 434/451/31 527/623/31 516/624/31

f 527/623/31 440/579/31 516/624/31

f 513/578/31 440/579/31 527/623/31

usemtl FrontColor
f 516/472/26 440/459/26 437/458/26 435/471/26 

vt -151.248 3.93701
vt -149.279 3.93701
vt -149.279 43.3071
vt -151.248 43.3071
f 435/625/34 516/626/34 451/627/34 446/628/34 

usemtl Cladding_Stucco_White
f 434/451/31 516/624/31 435/452/31

usemtl FrontColor
vt -747.948 -146.03
vt -747.934 -144.061
v 19007.5 1100 3659.09
vt -748.328 -144.059
v 19007.9 1100 3709.09
vt -748.341 -146.027
f 446/629/27 451/630/27 540/631/27 541/632/27 

vt 748.328 -144.059
vt 748.053 -104.69
f 523/587/26 521/575/26 452/459/26 451/472/26 540/633/26 539/634/26 

usemtl Translucent_Glass_Blue
vt -149.279 5.90551
vt -109.909 5.90551
f 515/635/34 528/636/34 521/621/34 452/627/34 

usemtl FrontColor
f 528/575/26 529/584/26 514/473/26 515/459/26 

f 529/462/32 528/461/32 521/467/32 517/463/32 

usemtl Translucent_Glass_Blue
vt 109.909 5.90551
vt 149.279 5.90551
f 529/637/33 514/638/33 453/477/33 517/591/33 

usemtl FrontColor
f 453/580/35 452/583/35 515/582/35 514/581/35 

v 18993.3 1150 1619.14
vn 0.999976 -1.6528e-15 -0.00698126
vt -262.665 45.2756
vt -262.665 43.3071
v 19027.3 1100 6489.02
vt -260.697 43.3071
v 19022.5 1100 5809.04
vt -233.925 43.3071
v 19022.2 1100 5759.04
vt -231.957 43.3071
v 19015.2 1100 4759.06
vt -192.587 43.3071
v 19014.9 1100 4709.07
vt -190.618 43.3071
f 542/536/46 426/639/46 427/640/46 543/641/46 544/642/46 545/643/46 546/644/46 547/645/46 541/628/46 540/627/46 539/621/46 536/612/46 537/535/46 

vt 783.986 -63.4929
vn -4.96403e-16 1 1.04392e-16
v 18983.2 1150 1609.21
vt 749.119 -257.442
f 486/646/47 487/387/47 548/399/47 425/410/47 426/647/47 542/614/47 

v 19912.8 1100 1542.72
vt -66.2086 43.3071
v 19912.8 1150 1542.72
vt -66.2086 45.2756
v 19912.8 1150 1552.72
vt -66.6023 45.2756
f 484/534/34 501/567/34 549/648/34 550/649/34 551/650/34 487/537/34 486/536/34 485/535/34 

vn -1.32829e-15 1 -2.56268e-16
v 19863 1100 1573.07
vt 782.007 -61.9318
v 19863 1100 1583.07
vt 782.01 -62.3255
v 19863.2 1100 1603.07
f 501/396/48 500/558/48 552/651/48 553/652/48 554/559/48 484/387/48 

vt -782.002 -61.1445
v 19862.8 1100 1543.07
vt -781.999 -60.7508
vt -783.967 -60.737
f 501/394/27 500/653/27 555/654/27 549/655/27 

vn 5.21444e-16 1 6.17661e-15
vt 781.999 -60.7508
v 18982.8 1100 1549.21
vt 747.354 -60.9926
f 464/495/49 503/597/49 552/651/49 500/558/49 555/656/49 556/657/49 

f 503/597/26 506/596/26 553/652/26 552/651/26 

f 503/568/34 506/571/34 505/570/34 504/569/34 

usemtl Translucent_Glass_Blue
vt 746.91 5.90551
v 19863 150 1583.07
vt 781.556 5.90551
vt 781.556 43.3071
f 505/658/32 557/659/32 553/660/32 506/443/32 

usemtl FrontColor
v 19863 150 1573.07
f 504/597/26 505/596/26 557/652/26 558/651/26 

vt 67.7834 43.3071
vt 67.7834 5.90551
vt 67.3897 5.90551
vt 67.3897 43.3071
f 500/601/33 498/598/33 497/599/33 554/600/33 553/661/33 557/662/33 558/663/33 552/664/33 

vt 781.556 3.93701
vt 783.524 3.93701
vt 783.524 43.3071
f 497/665/32 483/666/32 484/667/32 554/660/32 

usemtl Cladding_Stucco_White
vt 43.5547 -2.33701
f 497/556/31 482/526/31 483/668/31

usemtl FrontColor
f 483/487/34 499/486/34 501/567/34 484/534/34 

vt -64.6338 3.93701
vn 0.999976 5.75518e-17 -0.00698126
v 19912.5 2508 1502.72
vt -64.6338 98.7402
v 19912.8 2508 1552.72
vt -66.6023 98.7402
v 19912.8 2458 1552.72
vt -66.6023 96.7717
v 19912.9 2458 1567.72
vt -67.1929 96.7717
v 19912.9 2438 1567.72
vt -67.1929 95.9843
v 19913 2438 1572.72
vt -67.3897 95.9843
v 19913 1220 1572.72
vt -67.3897 48.0315
v 19912.9 1220 1567.72
vt -67.1929 48.0315
v 19912.9 1200 1567.72
vt -67.1929 47.2441
v 19912.8 1200 1552.72
vt -66.6023 47.2441
f 465/669/50 559/670/50 560/671/50 561/672/50 562/673/50 563/674/50 564/675/50 565/676/50 566/677/50 567/678/50 568/679/50 551/650/50 550/649/50 549/648/50 501/567/50 499/486/50 

usemtl Cladding_Stucco_White
vt -43.5291 0.145815
vn -0.00698126 -4.91244e-17 -0.999976
vt -43.5291 3.65704
v 18912.5 2508 1509.7
vt -41.3419 3.65704
vt -41.3419 3.80286
vt -43.5291 3.80286
v 20042.5 2608 1501.81
vt -43.8135 3.80286
v 20042.5 5.22429e-13 1501.81
vt -43.8135 6.44184e-16
vt -43.5291 7.34852e-16
vt -41.2763 1.45323e-15
vt -41.2763 0.145815
f 465/680/51 559/681/51 569/682/51 475/683/51 474/684/51 570/685/51 571/686/51 399/687/51 400/688/51 466/689/51 

usemtl FrontColor
vn -6.12546e-16 1 9.63729e-17
vt 744.587 -59.4371
v 18913 2508 1574.7
vt 744.605 -61.9961
v 18967.6 2508 6539.44
v 18933 2508 1574.56
vt 745.392 -61.9906
v 18932.9 2508 1559.56
f 559/402/52 569/690/52 572/691/52 469/400/52 573/401/52 574/692/52 575/397/52 560/396/52 

vn -5.96814e-14 1 1.5112e-16
f 469/400/53 572/691/53 569/690/53

vt -258.229 98.7402
vn 0.999999 -4.67321e-16 -0.00101717
vt -60.1945 98.7402
vt -60.1945 102.677
vt -258.229 102.677
f 469/693/54 569/694/54 475/695/54 468/696/54 

f 468/400/53 476/691/53 475/690/53

vt 742.973 98.7402
vn 0.00698126 -9.52531e-16 0.999976
vt 742.973 3.93701
v 18967.6 100 6539.44
v 18967.6 1100 6539.44
v 18957.6 1100 6539.51
vt 744.548 43.3071
v 18957.6 1150 6539.51
vt 744.548 45.2756
v 18967.6 1150 6539.44
vt 744.941 45.2756
v 18967.6 1200 6539.44
vt 744.941 47.2441
v 18982.6 1200 6539.34
vt 745.532 47.2441
v 18982.6 1220 6539.34
vt 745.532 48.0315
v 18987.6 1220 6539.3
vt 745.729 48.0315
v 18987.6 2438 6539.3
vt 745.729 95.9843
v 18982.6 2438 6539.34
vt 745.532 95.9843
v 18982.6 2458 6539.34
vt 745.532 96.7717
v 18967.6 2458 6539.44
vt 744.941 96.7717
vt 744.941 98.7402
f 469/697/55 457/698/55 576/465/55 577/464/55 578/699/55 579/700/55 580/701/55 581/702/55 582/703/55 583/704/55 584/705/55 585/706/55 586/707/55 587/708/55 588/709/55 573/710/55 

usemtl Cladding_Stucco_White
v 18967.3 100 6489.44
vt 41.4857 -9.46259
vt 41.4865 -9.53549
f 589/711/31 457/482/31 576/712/31

v 18962.5 100 5809.46
vt 41.4754 -8.47107
f 590/713/31 457/482/31 589/711/31

f 438/455/31 457/482/31 590/713/31

v 18955.2 100 4759.48
vt 41.4593 -6.94005
f 438/455/31 590/713/31 591/714/31

v 18962.2 100 5759.46
vt 41.4746 -8.39816
f 591/714/31 590/713/31 592/715/31

usemtl FrontColor
vt 746.556 -228.719
v 18992.5 100 5809.25
vt 747.737 -228.711
v 18992.2 100 5759.25
vt 747.724 -226.742
vt 746.543 -226.75
f 590/716/26 593/717/26 594/718/26 592/719/26 

usemtl Cladding_Stucco_White
vt 41.541 -8.47076
f 589/711/31 593/720/31 590/713/31

f 593/720/31 589/711/31 429/445/31

usemtl FrontColor
vt 748.712 -255.476
vt 746.743 -255.49
f 411/410/26 429/721/26 589/722/26 576/401/26 

vt -262.665 3.93701
vt -260.697 3.93701
v 19017.3 1100 6489.09
f 411/723/34 429/724/34 595/641/34 428/640/34 

v 18987.3 150 6489.3
v 18997.3 150 6489.23
v 18997.3 1100 6489.23
v 18967.3 1100 6489.44
v 18987.3 1100 6489.3
f 596/581/35 597/582/35 598/583/35 595/497/35 429/491/35 589/494/35 599/496/35 600/580/35 

vt 747.531 -255.484
vt 747.924 -255.482
v 18992.5 150 5809.25
v 18982.5 150 5809.32
vt 747.344 -228.713
f 596/725/26 597/726/26 601/717/26 602/727/26 

f 600/580/35 598/583/35 597/582/35 596/581/35 

vn 4.63846e-16 1 -2.0736e-15
f 428/410/56 595/721/56 598/726/56 600/725/56 599/722/56 577/401/56 

vt -748.712 -255.476
vt -749.105 -255.473
vt -749.119 -257.442
f 428/408/27 595/728/27 543/729/27 427/730/27 

v 19012.5 1100 5809.11
vt 748.525 -228.705
vn -5.96903e-15 1 -2.23869e-16
v 18992.5 1100 5809.25
vt 749.105 -255.473
vt 748.919 -228.702
f 603/731/57 604/717/57 598/726/57 595/721/57 543/732/57 544/733/57 

v 18962.2 1100 5759.46
vn 4.89045e-16 1 1.53587e-15
v 18962.5 1100 5809.46
v 18982.5 1100 5809.32
v 19012.2 1100 5759.11
vt 748.511 -226.737
v 18992.2 1100 5759.25
v 18982.2 1100 5759.32
vt 747.33 -226.745
f 605/719/58 606/716/58 607/727/58 604/717/58 603/731/58 608/734/58 609/718/58 610/735/58 

vt 231.957 3.93701
vt 233.925 3.93701
vt 233.925 43.3071
vt 231.957 43.3071
f 592/736/33 590/737/33 606/738/33 605/739/33 

f 590/465/32 593/466/32 430/423/32 603/443/32 604/467/32 601/461/32 602/462/32 607/463/32 606/464/32 

f 431/734/26 594/718/26 593/717/26 430/731/26 

usemtl Cladding_Stucco_White
vt 41.5402 -8.39786
f 432/449/31 594/740/31 431/448/31

v 18985.2 100 4759.27
vt 41.5249 -6.93974
f 611/741/31 594/740/31 432/449/31

f 611/741/31 592/715/31 594/740/31

f 592/715/31 611/741/31 591/714/31

usemtl FrontColor
vt 746.268 -187.381
vt 747.449 -187.373
vt 746.254 -185.413
f 591/742/26 611/743/26 436/470/26 438/744/26 

v 19005.2 1100 4759.13
v 18985.2 1100 4759.27
v 18985.2 150 4759.27
v 18975.2 150 4759.34
v 18975.2 1100 4759.34
v 18955.2 1100 4759.48
f 591/465/32 611/466/32 432/423/32 612/443/32 613/467/32 614/461/32 615/462/32 616/463/32 617/464/32 

vt 748.223 -185.399
vt 748.236 -187.368
f 433/745/26 436/470/26 611/743/26 432/746/26 

v 18954.9 1100 4709.49
v 18974.9 1100 4709.35
v 18984.9 1100 4709.28
v 19004.9 1100 4709.14
f 436/490/35 438/494/35 618/496/35 619/580/35 448/581/35 449/582/35 620/583/35 621/497/35 433/491/35 

vt 190.618 3.93701
vt 192.587 3.93701
vt 192.587 43.3071
vt 190.618 43.3071
f 438/747/33 591/748/33 617/749/33 618/750/33 

vt 747.055 -187.376
f 618/744/26 617/742/26 616/751/26 613/743/26 612/746/26 621/745/26 620/470/26 619/469/26 

vt -746.254 -185.413
vt -746.268 -187.381
v 18945.2 1100 4759.55
vt -745.874 -187.384
v 18944.9 1100 4709.55
vt -745.86 -185.416
f 618/752/27 617/753/27 622/754/27 623/755/27 

vt 745.874 -187.384
v 18952.2 1100 5759.53
vt 746.149 -226.753
f 605/719/26 610/735/26 616/751/26 617/742/26 622/756/26 624/757/26 

v 18982.2 150 5759.32
v 18992.2 150 5759.25
f 594/490/35 592/494/35 605/496/35 610/580/35 625/581/35 626/582/35 609/583/35 608/497/35 431/491/35 

usemtl Translucent_Glass_Blue
vt 192.587 5.90551
vt 231.957 5.90551
f 615/758/33 625/759/33 610/739/33 616/749/33 

usemtl FrontColor
f 614/743/26 615/751/26 625/735/26 626/718/26 

f 615/462/32 614/461/32 613/467/32 616/463/32 

usemtl Translucent_Glass_Blue
vt -231.957 5.90551
vt -192.587 5.90551
f 626/760/34 614/761/34 613/644/34 609/643/34 

usemtl FrontColor
f 613/743/26 616/751/26 610/735/26 609/718/26 

f 626/582/35 625/581/35 610/580/35 609/583/35 

vt 748.905 -226.734
vt 748.63 -187.365
f 612/746/26 613/743/26 609/718/26 608/734/26 545/762/26 546/763/26 

vt -748.525 -228.705
vt -748.511 -226.737
vt -748.905 -226.734
vt -748.919 -228.702
f 603/764/27 608/765/27 545/766/27 544/767/27 

vt -233.925 3.93701
vt -231.957 3.93701
f 430/768/34 431/769/34 608/643/34 603/642/34 

vt -748.236 -187.368
vt -748.223 -185.399
vt -748.616 -185.396
vt -748.63 -187.365
f 612/770/27 621/771/27 547/772/27 546/773/27 

vt -192.587 3.93701
vt -190.618 3.93701
f 432/774/34 433/775/34 621/645/34 612/644/34 

vt 748.616 -185.396
vt 748.341 -146.027
f 446/471/26 447/458/26 620/470/26 621/745/26 547/776/26 541/777/26 

f 447/458/26 444/468/26 619/469/26 620/470/26 

v 18937.9 1100 3709.58
vt 745.586 -146.046
vt 745.86 -185.416
f 618/744/26 619/469/26 444/468/26 445/457/26 627/778/26 623/779/26 

usemtl Translucent_Glass_Blue
vt 151.248 5.90551
vt 190.618 5.90551
f 443/780/33 448/781/33 619/750/33 444/476/33 

usemtl FrontColor
f 449/582/35 448/581/35 619/580/35 620/583/35 

usemtl Translucent_Glass_Blue
vt -190.618 5.90551
vt -151.248 5.90551
f 449/782/34 442/783/34 447/628/34 620/645/34 

usemtl FrontColor
vt -745.965 -144.075
vt -745.979 -146.044
vt -745.586 -146.046
vt -745.572 -144.078
f 450/784/27 445/785/27 627/786/27 520/787/27 

vt 262.665 43.3071
vn -0.999976 3.06425e-15 0.00698126
vt 262.665 45.2756
v 18922.8 1150 1549.63
vt 66.2086 45.2756
v 18922.8 1100 1549.63
vt 66.2086 43.3071
v 18952.5 1100 5809.53
v 18957.3 1100 6489.51
vt 260.697 43.3071
f 578/788/59 579/789/59 628/790/59 629/791/59 534/601/59 533/600/59 535/592/59 519/591/59 520/477/59 627/476/59 623/750/59 622/749/59 624/739/59 630/738/59 631/792/59 

f 577/464/32 428/443/32 427/442/32 426/441/32 425/440/32 580/701/32 579/700/32 578/699/32 

f 576/465/32 411/423/32 428/443/32 577/464/32 

vt 260.697 3.93701
vt 262.665 3.93701
f 589/793/33 576/794/33 577/788/33 599/792/33 

vt -746.743 -255.49
vt -746.363 -257.461
vt -746.35 -255.493
f 599/795/27 577/405/27 578/796/27 631/797/27 

vn 6.92193e-15 1 -3.13866e-16
vt 746.163 -228.722
vt 746.35 -255.493
f 599/722/60 600/725/60 607/727/60 606/716/60 630/798/60 631/799/60 

f 600/725/26 598/726/26 604/717/26 607/727/26 

usemtl Translucent_Glass_Blue
vt -260.697 5.90551
vt -233.925 5.90551
f 597/800/34 601/801/34 604/642/34 598/641/34 

usemtl FrontColor
f 602/462/32 601/461/32 604/467/32 607/463/32 

usemtl Translucent_Glass_Blue
vt 233.925 5.90551
vt 260.697 5.90551
f 602/802/33 596/803/33 600/792/33 607/738/33 

usemtl FrontColor
vt -746.543 -226.75
vt -746.556 -228.719
vt -746.163 -228.722
vt -746.149 -226.753
f 605/804/27 606/805/27 630/806/27 624/807/27 

vn -4.73016e-16 1 1.00379e-16
v 18932.9 1150 1559.56
f 580/401/61 425/410/61 548/399/61 487/387/61 551/396/61 632/397/61 

f 580/701/32 425/440/32 424/439/32 423/438/32 582/703/32 581/702/32 

v 18983.2 1200 1609.21
vt -262.665 47.2441
f 425/639/34 548/537/34 633/538/34 424/808/34 

vt 783.524 45.2756
vt 783.524 47.2441
f 633/439/32 548/440/32 487/809/32 488/810/32 

f 487/537/34 551/650/34 568/679/34 567/678/34 489/539/34 488/538/34 

vt -783.524 45.2756
vn -0.00698126 9.70747e-17 -0.999976
vt -744.941 45.2756
v 18932.9 1200 1559.56
vt -744.941 47.2441
vt -783.524 47.2441
f 551/811/62 632/812/62 634/813/62 568/814/62 

vt 783.967 -60.737
vn -4.39223e-16 1 9.91543e-17
vt 744.992 -61.0091
vt 746.363 -257.461
f 550/815/63 628/816/63 579/817/63 580/401/63 632/397/63 551/396/63 

vt -744.548 43.3071
vn -0.00698126 8.17651e-15 -0.999976
vt -744.548 45.2756
f 629/818/64 628/819/64 550/811/64 549/563/64 555/562/64 556/497/64 

vt -747.357 -61.3863
vt -744.992 -61.0091
vt -747.354 -60.9926
f 464/820/27 463/602/27 534/605/27 629/821/27 556/822/27 

vt 66.6023 45.2756
vn -0.999976 4.40971e-16 0.00698126
vt 262.665 47.2441
vt 66.6023 47.2441
f 632/823/65 580/789/65 581/824/65 634/825/65 

vt 747.348 -257.454
vn -4.45401e-16 1 1.01191e-16
v 18948 1200 1574.46
vt 745.983 -61.9865
vt 783.974 -61.7213
f 582/826/66 635/827/66 567/828/66 568/396/66 634/397/66 581/401/66 

vn -4.69257e-16 1 1.01264e-16
vt 748.135 -257.449
v 18968.1 1200 1594.32
vt 746.776 -62.7684
vt 783.98 -62.5086
f 582/826/67 423/829/67 636/830/67 489/831/67 567/828/67 635/827/67 

vn 0.00698126 1.46208e-13 0.999976
f 582/703/68 423/438/68 422/437/68 421/436/68 584/705/68 583/704/68 

vt -262.665 48.0315
v 18968.1 1220 1594.32
f 422/832/34 423/808/34 636/539/34 637/540/34 

vn -4.80551e-16 1 1.03864e-16
f 488/387/69 489/831/69 636/830/69 423/829/69 424/410/69 633/399/69 

vt 783.524 48.0315
f 637/437/32 636/438/32 489/810/32 490/833/32 

f 489/539/34 567/678/34 566/677/34 565/676/34 491/541/34 490/540/34 

vn -0.00698126 -1.58348e-16 -0.999976
vt -745.532 47.2441
v 18948 1220 1574.46
vt -745.532 48.0315
vt -783.524 48.0315
f 567/814/70 635/834/70 638/835/70 566/836/70 

vt 67.1929 47.2441
vn -0.999976 -4.69952e-16 0.00698126
vt 262.665 48.0315
vt 67.1929 48.0315
f 635/837/71 582/824/71 583/838/71 638/839/71 

vn -7.35507e-16 1 -5.11569e-16
vt 747.544 -257.453
v 18984.2 1220 6048.31
vt 747.409 -238.123
v 18984.2 1220 6043.31
vt 747.408 -237.926
v 18980.8 1220 5557.32
vt 747.275 -218.792
v 18980.7 1220 5552.32
vt 747.273 -218.595
v 18977.3 1220 5066.34
vt 747.14 -199.462
v 18977.3 1220 5061.34
vt 747.138 -199.265
v 18973.9 1220 4575.35
vt 747.005 -180.132
v 18973.9 1220 4570.35
vt 747.003 -179.935
v 18970.5 1220 4084.36
vt 746.87 -160.802
v 18970.5 1220 4079.36
vt 746.868 -160.605
v 18967.1 1220 3593.37
vt 746.735 -141.471
v 18967 1220 3588.37
vt 746.733 -141.275
v 18963.6 1220 3102.38
vt 746.6 -122.141
v 18963.6 1220 3097.38
vt 746.598 -121.944
v 18960.2 1220 2611.4
vt 746.465 -102.811
v 18960.2 1220 2606.4
vt 746.463 -102.614
v 18956.8 1220 2120.41
vt 746.33 -83.4807
v 18956.7 1220 2115.41
vt 746.328 -83.2838
v 18953.1 1220 1594.42
vt 746.185 -62.7725
v 18953.1 1220 1589.42
vt 746.184 -62.5756
v 18953 1220 1579.42
vt 746.181 -62.182
v 19440.1 1220 1576.02
vt 765.357 -62.0481
v 19444.1 1220 1575.99
vt 765.514 -62.047
vt 783.975 -61.9181
f 566/828/72 638/827/72 583/826/72 584/840/72 639/841/72 640/842/72 641/843/72 642/844/72 643/845/72 644/846/72 645/847/72 646/848/72 647/849/72 648/850/72 649/851/72 650/852/72 651/853/72 652/854/72 653/855/72 654/856/72 655/857/72 656/858/72 657/859/72 658/860/72 659/861/72 660/862/72 661/863/72 565/864/72 

vn -7.68924e-16 1 -5.40982e-16
vt 747.938 -257.45
v 18994.2 1220 6048.24
vt 747.803 -238.12
v 18994.2 1220 6043.24
vt 747.802 -237.923
v 18990.8 1220 5557.25
vt 747.668 -218.79
v 18990.7 1220 5552.26
vt 747.667 -218.593
v 18987.3 1220 5066.27
vt 747.533 -199.459
v 18987.3 1220 5061.27
vt 747.532 -199.262
v 18983.9 1220 4575.28
vt 747.398 -180.129
v 18983.9 1220 4570.28
vt 747.397 -179.932
v 18980.5 1220 4084.29
vt 747.263 -160.799
v 18980.5 1220 4079.29
vt 747.262 -160.602
v 18977.1 1220 3593.3
vt 747.128 -141.469
v 18977 1220 3588.3
vt 747.127 -141.272
v 18973.6 1220 3102.31
vt 746.993 -122.138
v 18973.6 1220 3097.31
vt 746.992 -121.942
v 18970.2 1220 2611.33
vt 746.858 -102.808
v 18970.2 1220 2606.33
vt 746.857 -102.611
v 18966.8 1220 2120.34
vt 746.724 -83.4779
v 18966.7 1220 2115.34
vt 746.722 -83.2811
v 18963.1 1220 1594.35
vt 746.579 -62.7697
v 18963.1 1220 1589.35
vt 746.578 -62.5729
v 19437.1 1220 1586.04
vt 765.239 -62.4426
v 19442.1 1220 1586.01
vt 765.435 -62.4412
vt 783.978 -62.3118
f 584/840/73 421/865/73 662/866/73 663/867/73 664/868/73 665/869/73 666/870/73 667/871/73 668/872/73 669/873/73 670/874/73 671/875/73 672/876/73 673/877/73 674/878/73 675/879/73 676/880/73 677/881/73 678/882/73 679/883/73 680/884/73 681/885/73 682/886/73 683/887/73 491/888/73 565/864/73 661/863/73 660/862/73 659/861/73 658/860/73 657/859/73 656/858/73 655/857/73 654/856/73 653/855/73 652/854/73 651/853/73 650/852/73 649/851/73 648/850/73 647/849/73 646/848/73 645/847/73 644/846/73 643/845/73 642/844/73 641/843/73 640/842/73 639/841/73 

vn 0.00698126 4.80774e-16 0.999976
f 584/705/74 421/436/74 420/435/74 585/706/74 

usemtl Translucent_Glass_Blue
vn 0.999976 4.10742e-16 -0.00698126
vt -243.335 48.0315
v 18994.2 2438 6048.24
vt -243.335 95.9843
vt -262.665 95.9843
f 421/832/75 662/889/75 684/890/75 420/891/75 

usemtl FrontColor
vn -1.60629e-15 1 -3.53352e-17
f 490/831/76 491/888/76 683/887/76 682/886/76 681/885/76 680/884/76 679/883/76 678/882/76 677/881/76 676/880/76 675/879/76 674/878/76 673/877/76 672/876/76 671/875/76 670/874/76 669/873/76 668/872/76 667/871/76 666/870/76 665/869/76 664/868/76 663/867/76 662/866/76 421/865/76 422/829/76 637/830/76 

usemtl Translucent_Glass_Blue
vt 783.524 95.9843
v 19442.1 2438 1586.01
vt 764.981 95.9843
vt 764.981 48.0315
f 492/892/32 685/893/32 683/894/32 491/833/32 

usemtl FrontColor
vn -1.61883e-15 1 -3.02044e-18
v 19437.1 2438 1586.04
v 18968.1 2438 1589.32
vt 746.774 -62.5715
v 18963.1 2438 1589.35
v 18963.1 2438 1594.35
v 18966.7 2438 2115.34
v 18966.8 2438 2120.34
v 18970.2 2438 2606.33
v 18970.2 2438 2611.33
v 18973.6 2438 3097.31
v 18973.6 2438 3102.31
v 18977 2438 3588.3
v 18977.1 2438 3593.3
v 18980.5 2438 4079.29
v 18980.5 2438 4084.29
v 18983.9 2438 4570.28
v 18983.9 2438 4575.28
v 18987.3 2438 5061.27
v 18987.3 2438 5066.27
v 18990.7 2438 5552.26
v 18990.8 2438 5557.25
v 18994.2 2438 6043.24
v 18968.1 2438 1594.32
f 493/831/77 492/888/77 685/887/77 686/886/77 687/895/77 688/885/77 689/884/77 690/883/77 691/882/77 692/881/77 693/880/77 694/879/77 695/878/77 696/877/77 697/876/77 698/875/77 699/874/77 700/873/77 701/872/77 702/871/77 703/870/77 704/869/77 705/868/77 706/867/77 684/866/77 420/865/77 419/829/77 707/830/77 

f 493/543/34 492/542/34 564/675/34 563/674/34 562/673/34 494/544/34 

f 491/541/75 565/676/75 564/675/75 492/542/75 

usemtl Translucent_Glass_Blue
vn -0.00698126 4.77914e-16 -0.999976
vt -765.062 48.0315
v 19444.1 1223 1575.99
vt -765.062 48.1496
v 19444.1 1236 1575.99
vt -765.062 48.6614
v 19444.1 2438 1575.99
vt -765.062 95.9843
vt -783.524 95.9843
f 565/836/78 661/896/78 708/897/78 709/898/78 710/899/78 564/900/78 

usemtl Color_009
vn -0.00698126 5.36773e-16 -0.999976
vt -764.905 48.0315
v 19440.1 1236 1576.02
vt -764.905 48.6614
v 19440.1 2438 1576.02
vt -764.905 95.9843
f 661/896/79 660/901/79 711/902/79 712/903/79 710/899/79 709/898/79 708/897/79 

usemtl Translucent_Glass_Blue
v 18953 2438 1579.42
vt -745.729 95.9843
vn -0.00698126 1.31847e-15 -0.999976
vt -745.729 48.0315
f 713/904/80 712/903/80 711/902/80 660/901/80 659/905/80 

usemtl FrontColor
vn -1.97223e-15 1 1.30621e-16
v 18953.1 2438 1589.42
v 18953.1 2438 1594.42
v 18956.7 2438 2115.41
v 18956.8 2438 2120.41
v 18960.2 2438 2606.4
v 18960.2 2438 2611.4
v 18963.6 2438 3097.38
v 18963.6 2438 3102.38
v 18967 2438 3588.37
v 18967.1 2438 3593.37
v 18970.5 2438 4079.36
v 18970.5 2438 4084.36
v 18973.9 2438 4570.35
v 18973.9 2438 4575.35
v 18977.3 2438 5061.34
v 18977.3 2438 5066.34
v 18980.7 2438 5552.32
v 18980.8 2438 5557.32
v 18984.2 2438 6043.31
v 18984.2 2438 6048.31
f 686/886/81 685/887/81 710/863/81 712/862/81 713/861/81 714/860/81 715/859/81 716/858/81 717/857/81 718/856/81 719/855/81 720/854/81 721/853/81 722/852/81 723/851/81 724/850/81 725/849/81 726/848/81 727/847/81 728/846/81 729/845/81 730/844/81 731/843/81 732/842/81 733/841/81 585/840/81 420/865/81 684/866/81 706/867/81 705/868/81 704/869/81 703/870/81 702/871/81 701/872/81 700/873/81 699/874/81 698/875/81 697/876/81 696/877/81 695/878/81 694/879/81 693/880/81 692/881/81 691/882/81 690/883/81 689/884/81 688/885/81 687/895/81 

usemtl Color_004
vt 764.784 48.0315
vt 764.784 95.9843
f 682/906/32 683/894/32 685/893/32 686/907/32 

usemtl Translucent_Glass_Blue
f 681/436/32 682/906/32 686/907/32 687/434/32 688/435/32 

usemtl Color_004
f 688/542/75 689/543/75 680/540/75 681/541/75 

usemtl Translucent_Glass_Blue
vt -88.4921 48.0315
vt -88.4921 95.9843
f 679/908/75 680/540/75 689/543/75 690/909/75 

usemtl Color_004
vt -88.6889 48.0315
vt -88.6889 95.9843
f 678/910/75 679/908/75 690/909/75 691/911/75 

usemtl Translucent_Glass_Blue
vt -107.823 95.9843
vt -107.823 48.0315
f 691/911/75 692/912/75 677/913/75 678/910/75 

usemtl Color_004
vt -108.02 48.0315
vt -108.02 95.9843
f 676/914/75 677/913/75 692/912/75 693/915/75 

usemtl Translucent_Glass_Blue
vt -127.154 95.9843
vt -127.154 48.0315
f 693/915/75 694/916/75 675/917/75 676/914/75 

usemtl Color_004
vt -127.35 48.0315
vt -127.35 95.9843
f 674/918/75 675/917/75 694/916/75 695/919/75 

usemtl Translucent_Glass_Blue
vt -146.484 95.9843
vt -146.484 48.0315
f 695/919/75 696/920/75 673/921/75 674/918/75 

usemtl Color_004
vt -146.681 48.0315
vt -146.681 95.9843
f 672/922/75 673/921/75 696/920/75 697/923/75 

usemtl Translucent_Glass_Blue
vt -165.815 95.9843
vt -165.815 48.0315
f 697/923/75 698/924/75 671/925/75 672/922/75 

usemtl Color_004
vt -166.012 48.0315
vt -166.012 95.9843
f 670/926/75 671/925/75 698/924/75 699/927/75 

usemtl Translucent_Glass_Blue
vt -185.146 95.9843
vt -185.146 48.0315
f 699/927/75 700/928/75 669/929/75 670/926/75 

usemtl Color_004
vt -185.342 48.0315
vt -185.342 95.9843
f 668/930/75 669/929/75 700/928/75 701/931/75 

usemtl Translucent_Glass_Blue
vt -204.476 95.9843
vt -204.476 48.0315
f 701/931/75 702/932/75 667/933/75 668/930/75 

usemtl Color_004
vt -204.673 48.0315
vt -204.673 95.9843
f 666/934/75 667/933/75 702/932/75 703/935/75 

usemtl Translucent_Glass_Blue
vt -223.807 95.9843
vt -223.807 48.0315
f 703/935/75 704/936/75 665/937/75 666/934/75 

usemtl Color_004
vt -224.004 48.0315
vt -224.004 95.9843
f 664/938/75 665/937/75 704/936/75 705/939/75 

usemtl Translucent_Glass_Blue
vt -243.138 95.9843
vt -243.138 48.0315
f 705/939/75 706/940/75 663/941/75 664/938/75 

usemtl Color_004
f 662/889/75 663/941/75 706/940/75 684/890/75 

usemtl FrontColor
vn -2.59141e-16 1 1.80102e-14
f 564/864/82 710/863/82 685/887/82 492/888/82 

vn -1.26712e-15 1 9.34059e-17
v 18948 2438 1574.46
f 564/864/83 563/828/83 734/827/83 586/826/83 585/840/83 733/841/83 732/842/83 731/843/83 730/844/83 729/845/83 728/846/83 727/847/83 726/848/83 725/849/83 724/850/83 723/851/83 722/852/83 721/853/83 720/854/83 719/855/83 718/856/83 717/857/83 716/858/83 715/859/83 714/860/83 713/861/83 712/862/83 710/863/83 

vt -745.532 95.9843
v 18948 2458 1574.46
vt -745.532 96.7717
vt -783.524 96.7717
f 563/900/35 734/942/35 735/943/35 562/944/35 

vt 67.1929 96.7717
vt 67.1929 95.9843
vt 262.665 95.9843
vt 262.665 96.7717
f 735/945/33 734/946/33 586/947/33 587/948/33 

vn 0.00698126 -1.53521e-13 0.999976
f 419/434/84 418/433/84 587/708/84 586/707/84 585/706/84 420/435/84 

v 18968.1 2458 1594.32
vt -262.665 96.7717
f 419/891/34 707/543/34 736/544/34 418/949/34 

vt 783.524 96.7717
v 18983.1 2458 1594.21
f 707/434/32 493/892/32 494/950/32 737/432/32 736/433/32 

vn -3.41865e-16 1 1.66794e-16
vt 747.366 -62.7642
f 587/826/85 418/829/85 736/830/85 737/951/85 494/831/85 562/828/85 735/827/85 

f 588/709/32 587/708/32 418/433/32 417/432/32 416/431/32 573/710/32 

vn -6.3419e-16 1 1.01863e-16
v 18932.9 2458 1559.56
f 562/828/86 561/396/86 738/397/86 588/401/86 587/826/86 735/827/86 

f 495/545/34 494/544/34 562/673/34 561/672/34 560/671/34 481/546/34 

vn -6.87899e-16 1 -2.60738e-16
v 18983.2 2458 1609.21
f 495/387/87 494/831/87 737/951/87 739/399/87 

vn 3.74541e-16 1 9.71384e-17
f 418/829/88 417/410/88 739/399/88 737/951/88 736/830/88 

vt -262.665 98.7402
f 417/949/34 739/545/34 479/546/34 416/952/34 

vt 783.524 98.7402
f 739/432/32 495/950/32 481/953/32 478/430/32 479/431/32 

vn -3.87048e-16 1 -1.37107e-16
f 481/387/89 560/396/89 575/397/89 574/692/89 573/401/89 416/410/89 479/399/89 478/388/89 

vt -744.941 96.7717
vt -744.941 98.7402
vt -783.524 98.7402
f 561/944/35 738/954/35 575/955/35 560/956/35 

vt 66.6023 98.7402
vt 66.6023 96.7717
vt 262.665 98.7402
vt 67.1929 98.7402
f 575/957/33 738/958/33 588/948/33 573/959/33 574/960/33 

usemtl Translucent_Glass_Blue
vn -0.999976 -3.09563e-15 0.00698126
vt 243.335 95.9843
vt 243.335 48.0315
f 585/947/90 733/961/90 639/962/90 584/838/90 

usemtl Color_009
vt 243.138 48.0315
vn -0.999976 -4.37347e-15 0.00698126
vt 243.138 95.9843
f 640/963/91 639/962/91 733/961/91 732/964/91 

usemtl Translucent_Glass_Blue
vt 224.004 48.0315
vn -0.999976 -2.97507e-15 0.00698126
vt 224.004 95.9843
f 641/965/92 640/963/92 732/964/92 731/966/92 

usemtl Color_009
vn -0.999976 -7.03842e-17 0.00698126
vt 223.807 95.9843
vt 223.807 48.0315
f 731/966/93 730/967/93 642/968/93 641/965/93 

usemtl Translucent_Glass_Blue
vt 204.673 48.0315
vn -0.999976 -9.38776e-16 0.00698126
vt 204.673 95.9843
f 643/969/94 642/968/94 730/967/94 729/970/94 

usemtl Color_009
vn -0.999976 -1.45098e-15 0.00698126
vt 204.476 95.9843
vt 204.476 48.0315
f 729/970/95 728/971/95 644/972/95 643/969/95 

usemtl Translucent_Glass_Blue
vn -0.999976 -1.86163e-15 0.00698126
vt 185.342 95.9843
vt 185.342 48.0315
f 728/971/96 727/973/96 645/974/96 644/972/96 

usemtl Color_009
vt 185.146 48.0315
vn -0.999976 -1.86135e-15 0.00698126
vt 185.146 95.9843
f 646/975/97 645/974/97 727/973/97 726/976/97 

usemtl Translucent_Glass_Blue
vt 166.012 48.0315
vn -0.999976 -1.86527e-15 0.00698126
vt 166.012 95.9843
f 647/977/98 646/975/98 726/976/98 725/978/98 

usemtl Color_009
vt 165.815 48.0315
vn -0.999976 -1.98156e-15 0.00698126
vt 165.815 95.9843
f 648/979/99 647/977/99 725/978/99 724/980/99 

usemtl Translucent_Glass_Blue
vn -0.999976 1.18324e-16 0.00698126
vt 146.681 95.9843
vt 146.681 48.0315
f 724/980/100 723/981/100 649/982/100 648/979/100 

usemtl Color_009
vn -0.999976 7.00586e-16 0.00698126
vt 146.484 95.9843
vt 146.484 48.0315
f 723/981/101 722/983/101 650/984/101 649/982/101 

usemtl Translucent_Glass_Blue
vt 127.35 48.0315
vn -0.999976 -8.20543e-16 0.00698126
vt 127.35 95.9843
f 651/985/102 650/984/102 722/983/102 721/986/102 

usemtl Color_009
vt 127.154 48.0315
vn -0.999976 -1.11097e-15 0.00698126
vt 127.154 95.9843
f 652/987/103 651/985/103 721/986/103 720/988/103 

usemtl Translucent_Glass_Blue
vn -0.999976 -1.1607e-15 0.00698126
vt 108.02 95.9843
vt 108.02 48.0315
f 720/988/104 719/989/104 653/990/104 652/987/104 

usemtl Color_009
vn -0.999976 -1.57115e-15 0.00698126
vt 107.823 95.9843
vt 107.823 48.0315
f 719/989/105 718/991/105 654/992/105 653/990/105 

usemtl Translucent_Glass_Blue
vt 88.6889 48.0315
vn -0.999976 -2.12964e-15 0.00698126
vt 88.6889 95.9843
f 655/993/106 654/992/106 718/991/106 717/994/106 

usemtl Color_009
vn -0.999976 -2.3765e-15 0.00698126
vt 88.4921 95.9843
vt 88.4921 48.0315
f 717/994/107 716/995/107 656/996/107 655/993/107 

usemtl Translucent_Glass_Blue
vn -0.999976 -3.01199e-15 0.00698126
vt 67.9803 95.9843
vt 67.9803 48.0315
f 716/995/108 715/997/108 657/998/108 656/996/108 

usemtl Color_009
vt 67.7834 48.0315
vn -0.999976 -3.01182e-15 0.00698126
vt 67.7834 95.9843
f 658/999/109 657/998/109 715/997/109 714/1000/109 

usemtl Translucent_Glass_Blue
vt 67.3897 48.0315
vn -0.999976 -9.85608e-16 0.00698126
vt 67.3897 95.9843
f 659/1001/110 658/999/110 714/1000/110 713/1002/110 

usemtl FrontColor
vt -745.677 -102.738
vt -745.691 -104.706
vt -745.297 -104.709
vt -745.283 -102.74
f 522/1003/27 518/1004/27 519/1005/27 535/1006/27 

usemtl Cladding_Stucco_White
f 593/720/31 429/445/31 430/447/31

usemtl FrontColor
vn 6.26465e-16 1 2.79795e-14
vt 789.106 -63.654
vt 789.074 -59.1265
f 474/402/111 473/386/111 496/1007/111 570/1008/111 

usemtl Cladding_Stucco_White
vn 0.999976 -1.0113e-17 -0.00698126
vt -3.8423 1.1017e-15
vt -3.80949 1.09589e-15
vt -3.70013 1.07653e-15
vt -3.59077 1.05717e-15
vt -3.59077 3.80286
f 496/531/112 391/1009/112 390/1010/112 393/1011/112 571/1012/112 570/1013/112 

usemtl FrontColor
vt -783.956 -59.1623
vt -789.074 -59.1265
f 392/394/27 399/1014/27 571/1015/27 393/395/27 

vt -782.015 -63.1129
vt -783.986 -63.4929
v 19863.3 1100 1613.07
vt -782.018 -63.5066
f 554/1016/27 484/391/27 485/1017/27 740/1018/27 

f 486/809/32 542/441/32 537/442/32 740/660/32 485/667/32 

vn 4.41729e-16 1 -6.81877e-15
vt 782.018 -63.5066
f 554/559/113 553/652/113 506/596/113 502/399/113 538/615/113 537/614/113 740/1019/113 

f 553/661/33 552/664/33 558/663/33 557/662/33 

usemtl Translucent_Glass_Blue
vt -781.556 5.90551
vt -746.91 5.90551
f 558/1020/35 504/1021/35 503/497/35 552/562/35 

usemtl Cladding_Stucco_White
vt -3.8423 0.145815
vt -14.5925 0.145815
vt -14.5925 1.66803e-14
vt -3.8423 1.47773e-14
f 434/1022/34 412/1023/34 405/1024/34 389/1025/34 

g Mesh3 Model

usemtl sao_paulo
v 18681.1 -618260 -38795.2
vt 0 0
vn 25.3994 1.04329e-14 -0.177324
v 18666.8 -618260 -40843.7
vt 1 0
v 18666.8 -616723 -40843.7
vt 1 1
v 18681.1 -616723 -38795.2
vt 0 1
f 741/1026/114 742/1027/114 743/1028/114 744/1029/114 

